<?xml version="1.0" encoding="UTF-8"?><svg xmlns="http://www.w3.org/2000/svg" xmlns:xlink="http://www.w3.org/1999/xlink" contentScriptType="text/ecmascript" width="375pt" zoomAndPan="magnify" contentStyleType="text/css" viewBox="0 0 375 374.999991" height="374.999991pt" preserveAspectRatio="xMidYMid meet" version="1.2"><defs><g/><clipPath xml:id="clip1" id="clip1"><path d="M 90.097656 23.632812 L 275.347656 23.632812 L 275.347656 208.882812 L 90.097656 208.882812 Z M 90.097656 23.632812 "/></clipPath></defs><g xml:id="surface1" id="surface1"><g clip-rule="nonzero" clip-path="url(#clip1)"><path style=" stroke:none;fill-rule:nonzero;fill:rgb(0%,0%,0%);fill-opacity:1;" d="M 275.636719 23.632812 L 275.636719 116.402344 C 250.019531 116.402344 229.253906 95.636719 229.25 70.019531 C 229.25 95.636719 208.484375 116.402344 182.867188 116.402344 L 182.867188 23.632812 C 208.484375 23.632812 229.25 44.398438 229.25 70.015625 C 229.253906 44.398438 250.019531 23.632812 275.636719 23.632812 Z M 182.867188 70.019531 C 182.867188 95.636719 162.097656 116.402344 136.480469 116.402344 C 110.863281 116.402344 90.097656 95.636719 90.097656 70.019531 C 90.097656 44.402344 110.863281 23.632812 136.480469 23.632812 C 162.097656 23.632812 182.867188 44.402344 182.867188 70.019531 Z M 174.199219 54.089844 C 172.136719 49.214844 169.183594 44.835938 165.425781 41.078125 C 161.664062 37.316406 157.285156 34.363281 152.414062 32.300781 C 147.371094 30.167969 142.011719 29.089844 136.480469 29.089844 C 130.953125 29.089844 125.59375 30.167969 120.550781 32.300781 C 115.679688 34.363281 111.300781 37.316406 107.539062 41.078125 C 103.78125 44.835938 100.828125 49.214844 98.765625 54.089844 C 96.632812 59.128906 95.550781 64.492188 95.550781 70.019531 C 95.550781 75.546875 96.632812 80.90625 98.765625 85.949219 C 100.828125 90.820312 103.78125 95.199219 107.539062 98.960938 C 111.300781 102.71875 115.679688 105.671875 120.550781 107.734375 C 125.59375 109.867188 130.953125 110.949219 136.484375 110.949219 C 142.011719 110.949219 147.371094 109.867188 152.414062 107.734375 C 157.285156 105.671875 161.664062 102.71875 165.425781 98.960938 C 169.183594 95.199219 172.136719 90.820312 174.199219 85.949219 C 176.332031 80.90625 177.414062 75.546875 177.414062 70.019531 C 177.414062 64.492188 176.332031 59.128906 174.199219 54.089844 Z M 171.011719 70.019531 C 171.011719 89.085938 155.550781 104.546875 136.480469 104.546875 C 117.414062 104.546875 101.953125 89.085938 101.953125 70.019531 C 101.953125 50.949219 117.414062 35.488281 136.480469 35.488281 C 155.550781 35.488281 171.011719 50.949219 171.011719 70.019531 Z M 163.273438 58.703125 C 161.808594 55.238281 159.710938 52.128906 157.039062 49.460938 C 154.371094 46.792969 151.261719 44.691406 147.796875 43.226562 C 144.222656 41.714844 140.414062 40.945312 136.480469 40.945312 C 132.550781 40.945312 128.742188 41.714844 125.164062 43.226562 C 121.703125 44.691406 118.59375 46.792969 115.921875 49.460938 C 113.253906 52.128906 111.15625 55.238281 109.691406 58.703125 C 108.179688 62.277344 107.40625 66.085938 107.40625 70.019531 C 107.40625 73.949219 108.179688 77.757812 109.691406 81.332031 C 111.15625 84.796875 113.253906 87.90625 115.921875 90.574219 C 118.59375 93.246094 121.703125 95.34375 125.164062 96.808594 C 128.742188 98.320312 132.550781 99.09375 136.480469 99.09375 C 140.414062 99.09375 144.222656 98.320312 147.796875 96.808594 C 151.261719 95.34375 154.371094 93.246094 157.039062 90.574219 C 159.707031 87.90625 161.808594 84.796875 163.273438 81.332031 C 164.785156 77.757812 165.558594 73.949219 165.558594 70.019531 C 165.558594 66.085938 164.785156 62.277344 163.273438 58.703125 Z M 159.15625 70.019531 C 159.15625 82.539062 149.003906 92.691406 136.480469 92.691406 C 123.960938 92.691406 113.808594 82.539062 113.808594 70.019531 C 113.808594 57.496094 123.960938 47.34375 136.480469 47.34375 C 149.003906 47.34375 159.15625 57.496094 159.15625 70.019531 Z M 153.703125 70.019531 C 153.703125 67.683594 153.242188 65.425781 152.347656 63.316406 C 151.480469 61.265625 150.234375 59.421875 148.65625 57.84375 C 147.078125 56.265625 145.234375 55.019531 143.183594 54.152344 C 141.074219 53.257812 138.816406 52.796875 136.480469 52.796875 C 134.144531 52.796875 131.890625 53.257812 129.78125 54.152344 C 127.730469 55.019531 125.882812 56.265625 124.308594 57.84375 C 122.730469 59.421875 121.484375 61.265625 120.617188 63.316406 C 119.722656 65.425781 119.261719 67.683594 119.261719 70.019531 C 119.261719 72.355469 119.722656 74.609375 120.617188 76.71875 C 121.484375 78.769531 122.730469 80.617188 124.308594 82.191406 C 125.882812 83.769531 127.730469 85.015625 129.78125 85.882812 C 131.890625 86.777344 134.144531 87.238281 136.480469 87.238281 C 138.816406 87.238281 141.074219 86.777344 143.183594 85.882812 C 145.234375 85.015625 147.078125 83.769531 148.65625 82.191406 C 150.234375 80.617188 151.480469 78.769531 152.347656 76.71875 C 153.242188 74.609375 153.703125 72.355469 153.703125 70.019531 Z M 147.300781 70.019531 C 147.300781 75.992188 142.457031 80.835938 136.480469 80.835938 C 130.507812 80.835938 125.664062 75.992188 125.664062 70.019531 C 125.664062 64.042969 130.507812 59.199219 136.480469 59.199219 C 142.457031 59.199219 147.300781 64.042969 147.300781 70.019531 Z M 141.847656 70.019531 C 141.847656 67.058594 139.441406 64.652344 136.480469 64.652344 C 133.523438 64.652344 131.117188 67.058594 131.117188 70.019531 C 131.117188 72.976562 133.523438 75.382812 136.480469 75.382812 C 139.441406 75.382812 141.847656 72.976562 141.847656 70.019531 Z M 136.484375 162.785156 C 136.480469 137.167969 115.714844 116.402344 90.097656 116.402344 L 90.097656 209.171875 C 115.714844 209.171875 136.480469 188.40625 136.484375 162.789062 C 136.484375 188.40625 157.25 209.171875 182.867188 209.171875 L 182.867188 116.402344 C 157.25 116.402344 136.484375 137.167969 136.484375 162.785156 Z M 275.636719 162.789062 C 275.636719 188.40625 254.871094 209.171875 229.253906 209.171875 C 203.636719 209.171875 182.867188 188.40625 182.867188 162.789062 C 182.867188 137.171875 203.636719 116.402344 229.253906 116.402344 C 254.871094 116.402344 275.636719 137.171875 275.636719 162.789062 Z M 266.96875 146.855469 C 264.90625 141.984375 261.953125 137.605469 258.195312 133.84375 C 254.433594 130.085938 250.054688 127.132812 245.183594 125.070312 C 240.140625 122.9375 234.78125 121.859375 229.25 121.859375 C 223.722656 121.859375 218.363281 122.9375 213.320312 125.070312 C 208.449219 127.132812 204.070312 130.085938 200.308594 133.84375 C 196.550781 137.605469 193.597656 141.984375 191.535156 146.855469 C 189.402344 151.898438 188.320312 157.257812 188.320312 162.789062 C 188.320312 168.316406 189.402344 173.675781 191.535156 178.71875 C 193.597656 183.589844 196.550781 187.96875 200.308594 191.730469 C 204.070312 195.488281 208.449219 198.441406 213.320312 200.503906 C 218.363281 202.636719 223.722656 203.71875 229.25 203.71875 C 234.78125 203.71875 240.140625 202.636719 245.183594 200.503906 C 250.054688 198.441406 254.433594 195.488281 258.195312 191.730469 C 261.953125 187.96875 264.90625 183.589844 266.96875 178.71875 C 269.101562 173.675781 270.179688 168.316406 270.179688 162.789062 C 270.183594 157.257812 269.101562 151.898438 266.96875 146.855469 Z M 263.78125 162.789062 C 263.78125 181.855469 248.320312 197.316406 229.253906 197.316406 C 210.183594 197.316406 194.722656 181.855469 194.722656 162.789062 C 194.722656 143.71875 210.183594 128.257812 229.253906 128.257812 C 248.320312 128.257812 263.78125 143.71875 263.78125 162.789062 Z M 256.042969 151.472656 C 254.578125 148.007812 252.480469 144.898438 249.808594 142.230469 C 247.140625 139.558594 244.03125 137.460938 240.566406 135.996094 C 236.992188 134.484375 233.183594 133.714844 229.25 133.714844 C 225.320312 133.714844 221.511719 134.484375 217.9375 135.996094 C 214.472656 137.460938 211.363281 139.558594 208.695312 142.230469 C 206.023438 144.898438 203.925781 148.007812 202.460938 151.472656 C 200.949219 155.046875 200.175781 158.855469 200.175781 162.789062 C 200.175781 166.71875 200.949219 170.527344 202.460938 174.101562 C 203.925781 177.566406 206.023438 180.675781 208.695312 183.34375 C 211.363281 186.015625 214.472656 188.113281 217.9375 189.578125 C 221.511719 191.089844 225.320312 191.859375 229.25 191.859375 C 233.183594 191.859375 236.992188 191.089844 240.566406 189.578125 C 244.03125 188.113281 247.140625 186.015625 249.808594 183.34375 C 252.480469 180.675781 254.578125 177.566406 256.042969 174.101562 C 257.554688 170.527344 258.328125 166.71875 258.328125 162.789062 C 258.328125 158.855469 257.554688 155.046875 256.042969 151.472656 Z M 251.925781 162.789062 C 251.925781 175.308594 241.773438 185.460938 229.253906 185.460938 C 216.730469 185.460938 206.578125 175.308594 206.578125 162.789062 C 206.578125 150.265625 216.730469 140.113281 229.253906 140.113281 C 241.773438 140.113281 251.925781 150.265625 251.925781 162.789062 Z M 246.472656 162.789062 C 246.472656 160.453125 246.011719 158.195312 245.117188 156.085938 C 244.25 154.035156 243.003906 152.191406 241.425781 150.613281 C 239.851562 149.035156 238.003906 147.789062 235.953125 146.921875 C 233.84375 146.027344 231.589844 145.566406 229.253906 145.566406 C 226.917969 145.566406 224.660156 146.027344 222.550781 146.921875 C 220.5 147.789062 218.65625 149.035156 217.078125 150.613281 C 215.5 152.191406 214.253906 154.035156 213.386719 156.085938 C 212.492188 158.195312 212.03125 160.453125 212.03125 162.789062 C 212.03125 165.125 212.492188 167.378906 213.386719 169.488281 C 214.253906 171.539062 215.5 173.386719 217.078125 174.960938 C 218.65625 176.539062 220.5 177.785156 222.550781 178.652344 C 224.660156 179.546875 226.917969 180.007812 229.253906 180.007812 C 231.589844 180.007812 233.84375 179.546875 235.953125 178.652344 C 238.003906 177.785156 239.851562 176.539062 241.425781 174.960938 C 243.003906 173.386719 244.25 171.539062 245.117188 169.488281 C 246.011719 167.378906 246.472656 165.125 246.472656 162.789062 Z M 240.070312 162.789062 C 240.070312 168.761719 235.226562 173.605469 229.253906 173.605469 C 223.277344 173.605469 218.433594 168.761719 218.433594 162.789062 C 218.433594 156.8125 223.277344 151.96875 229.253906 151.96875 C 235.226562 151.96875 240.070312 156.8125 240.070312 162.789062 Z M 234.617188 162.789062 C 234.617188 159.828125 232.210938 157.421875 229.25 157.421875 C 226.292969 157.421875 223.886719 159.828125 223.886719 162.789062 C 223.886719 165.746094 226.292969 168.152344 229.25 168.152344 C 232.210938 168.152344 234.617188 165.746094 234.617188 162.789062 Z M 234.617188 162.789062 "/></g><g style="fill:rgb(0%,0%,0%);fill-opacity:1;"><g transform="translate(37.659826, 296.244765)"><path style="stroke:none;" d="M 0.40625 -1.84375 L 4.4375 -1.84375 L 15.53125 -16.71875 L 3.8125 -34.421875 L 0.359375 -34.421875 L 0.359375 -36.265625 L 15.40625 -36.265625 L 15.40625 -34.421875 L 11.015625 -34.421875 L 19.703125 -21.46875 L 29.234375 -34.421875 L 25.21875 -34.421875 L 25.21875 -36.296875 L 35.890625 -36.296875 L 35.890625 -34.421875 L 31.828125 -34.421875 L 20.9375 -19.625 L 32.875 -1.84375 L 36.109375 -1.84375 L 36.109375 0 L 21.078125 0 L 21.078125 -1.84375 L 25.390625 -1.84375 L 16.765625 -14.84375 L 7.140625 -1.84375 L 11.46875 -1.84375 L 11.46875 0 L 0.40625 0 Z M 0.40625 -1.84375 "/></g></g><g style="fill:rgb(0%,0%,0%);fill-opacity:1;"><g transform="translate(101.057092, 296.244765)"><path style="stroke:none;" d="M 30.984375 -33.703125 C 31.617188 -34.453125 31.953125 -35.304688 31.984375 -36.265625 L 33.921875 -36.265625 L 33.921875 -26.328125 L 31.90625 -26.328125 C 31.445312 -28.953125 30.191406 -31.015625 28.140625 -32.515625 C 26.097656 -34.023438 23.875 -34.78125 21.46875 -34.78125 C 13.476562 -34.78125 9.515625 -29.191406 9.578125 -18.015625 C 9.617188 -13.578125 10.503906 -9.890625 12.234375 -6.953125 C 14.222656 -3.546875 17.113281 -1.84375 20.90625 -1.84375 C 23.800781 -1.84375 26.25 -2.351562 28.25 -3.375 C 30.25 -4.394531 31.816406 -5.773438 32.953125 -7.515625 L 34.1875 -6.375 C 33.582031 -4.9375 32.332031 -3.5625 30.4375 -2.25 C 27.832031 -0.4375 24.5625 0.46875 20.625 0.46875 C 15.03125 0.46875 10.570312 -1.269531 7.25 -4.75 C 3.9375 -8.238281 2.28125 -12.675781 2.28125 -18.0625 C 2.28125 -23.445312 3.929688 -27.90625 7.234375 -31.4375 C 10.546875 -34.96875 15.148438 -36.734375 21.046875 -36.734375 C 24.242188 -36.734375 27.023438 -36.085938 29.390625 -34.796875 C 30.054688 -34.429688 30.585938 -34.066406 30.984375 -33.703125 Z M 30.984375 -33.703125 "/></g></g><g style="fill:rgb(0%,0%,0%);fill-opacity:1;"><g transform="translate(164.359556, 296.244765)"><path style="stroke:none;" d="M 1.296875 -1.84375 L 5 -1.84375 L 5.03125 -34.421875 L 1.296875 -34.421875 L 1.296875 -36.265625 L 15.40625 -36.265625 L 15.40625 -34.421875 L 11.40625 -34.421875 L 11.40625 -19.109375 L 29.03125 -19.109375 L 29.0625 -34.421875 L 25.0625 -34.421875 L 25.0625 -36.265625 L 39.15625 -36.265625 L 39.15625 -34.421875 L 35.4375 -34.421875 L 35.4375 -1.84375 L 39.140625 -1.84375 L 39.140625 0 L 25.0625 0 L 25.0625 -1.84375 L 29.03125 -1.84375 L 29.03125 -17.25 L 11.40625 -17.25 L 11.40625 -1.84375 L 15.390625 -1.84375 L 15.390625 0 L 1.296875 0 Z M 1.296875 -1.84375 "/></g></g><g style="fill:rgb(0%,0%,0%);fill-opacity:1;"><g transform="translate(231.76223, 296.244765)"><path style="stroke:none;" d="M 1.6875 -1.875 L 6.421875 -1.875 L 6.453125 -34.421875 L 1.6875 -34.421875 L 1.6875 -36.265625 L 32.328125 -36.265625 L 32.328125 -25.9375 L 30.484375 -25.9375 C 30.398438 -27.25 30.285156 -28.410156 30.140625 -29.421875 C 30.003906 -30.441406 29.707031 -31.3125 29.25 -32.03125 C 28.332031 -33.476562 26.46875 -34.273438 23.65625 -34.421875 L 12.828125 -34.421875 L 12.828125 -19.53125 L 18.75 -19.53125 C 20.09375 -19.53125 21.125 -19.75 21.84375 -20.1875 C 22.5625 -20.625 23 -21.382812 23.15625 -22.46875 C 23.1875 -22.789062 23.210938 -23.128906 23.234375 -23.484375 C 23.265625 -23.835938 23.296875 -24.1875 23.328125 -24.53125 L 25.3125 -24.53125 L 25.3125 -12.296875 L 23.328125 -12.296875 C 23.296875 -12.660156 23.265625 -13.078125 23.234375 -13.546875 C 23.210938 -14.023438 23.1875 -14.425781 23.15625 -14.75 C 23 -15.832031 22.550781 -16.59375 21.8125 -17.03125 C 21.082031 -17.46875 20.0625 -17.6875 18.75 -17.6875 L 12.828125 -17.6875 L 12.828125 -1.84375 L 22.96875 -1.84375 C 27.125 -1.84375 29.644531 -3.765625 30.53125 -7.609375 C 30.78125 -8.710938 30.945312 -9.847656 31.03125 -11.015625 L 32.875 -11.015625 L 32.875 0 L 1.6875 0 Z M 1.6875 -1.875 "/></g></g><g style="fill:rgb(0%,0%,0%);fill-opacity:1;"><g transform="translate(295.088382, 296.244765)"><path style="stroke:none;" d="M 1.6875 -1.875 L 6.75 -1.84375 L 6.78125 -34.4375 L 2.796875 -34.4375 L 2.796875 -36.265625 L 17.375 -36.265625 L 17.375 -34.4375 L 13.15625 -34.4375 L 13.15625 -1.84375 L 20.40625 -1.84375 C 24.5625 -1.84375 27.082031 -3.765625 27.96875 -7.609375 C 28.21875 -8.710938 28.382812 -9.847656 28.46875 -11.015625 L 30.3125 -11.015625 L 30.3125 0 L 1.6875 0 Z M 1.6875 -1.875 "/></g></g><g style="fill:rgb(0%,0%,0%);fill-opacity:1;"><g transform="translate(106.220831, 332.928552)"><path style="stroke:none;" d="M 0.8125 0.03125 C 0.632812 0.03125 0.546875 -0.0390625 0.546875 -0.1875 C 0.546875 -0.289062 0.671875 -0.347656 0.921875 -0.359375 C 1.015625 -0.367188 1.117188 -0.4375 1.234375 -0.5625 C 1.359375 -0.695312 1.445312 -0.875 1.5 -1.09375 C 1.550781 -1.320312 1.609375 -2.085938 1.671875 -3.390625 C 1.734375 -4.691406 1.765625 -5.710938 1.765625 -6.453125 C 1.765625 -7.191406 1.679688 -7.722656 1.515625 -8.046875 C 1.347656 -8.378906 0.984375 -8.609375 0.421875 -8.734375 C 0.304688 -8.753906 0.25 -8.816406 0.25 -8.921875 C 0.25 -9.054688 0.328125 -9.125 0.484375 -9.125 L 1.171875 -9.0625 L 2.125 -9.09375 C 2.289062 -9.09375 2.394531 -9.03125 2.4375 -8.90625 C 2.539062 -8.6875 2.722656 -8.285156 2.984375 -7.703125 C 3.253906 -7.128906 3.46875 -6.671875 3.625 -6.328125 C 3.78125 -5.984375 3.984375 -5.546875 4.234375 -5.015625 C 4.484375 -4.484375 4.6875 -4.050781 4.84375 -3.71875 C 5 -3.394531 5.160156 -3.066406 5.328125 -2.734375 C 5.492188 -2.398438 5.617188 -2.15625 5.703125 -2 C 5.796875 -1.84375 5.851562 -1.765625 5.875 -1.765625 C 5.90625 -1.765625 5.9375 -1.773438 5.96875 -1.796875 C 6 -1.828125 6.023438 -1.867188 6.046875 -1.921875 C 6.078125 -1.972656 6.101562 -2.023438 6.125 -2.078125 C 6.15625 -2.128906 6.1875 -2.195312 6.21875 -2.28125 C 6.257812 -2.363281 6.289062 -2.425781 6.3125 -2.46875 L 7.96875 -5.875 C 8.414062 -6.800781 8.71875 -7.453125 8.875 -7.828125 L 9.171875 -8.46875 C 9.191406 -8.53125 9.207031 -8.582031 9.21875 -8.625 C 9.238281 -8.664062 9.25 -8.695312 9.25 -8.71875 C 9.257812 -8.738281 9.269531 -8.753906 9.28125 -8.765625 C 9.289062 -8.785156 9.304688 -8.828125 9.328125 -8.890625 C 9.347656 -8.953125 9.375 -8.992188 9.40625 -9.015625 C 9.46875 -9.085938 9.59375 -9.125 9.78125 -9.125 L 10.875 -9.09375 C 11.019531 -9.09375 11.09375 -9.035156 11.09375 -8.921875 C 11.09375 -8.835938 11.066406 -8.773438 11.015625 -8.734375 C 10.960938 -8.703125 10.835938 -8.671875 10.640625 -8.640625 C 10.453125 -8.617188 10.3125 -8.515625 10.21875 -8.328125 C 10.132812 -8.140625 10.09375 -7.625 10.09375 -6.78125 C 10.09375 -5.9375 10.117188 -5.046875 10.171875 -4.109375 C 10.222656 -3.171875 10.25 -2.582031 10.25 -2.34375 C 10.25 -1.476562 10.316406 -0.925781 10.453125 -0.6875 C 10.585938 -0.457031 10.875 -0.34375 11.3125 -0.34375 C 11.375 -0.34375 11.425781 -0.320312 11.46875 -0.28125 C 11.519531 -0.238281 11.546875 -0.203125 11.546875 -0.171875 C 11.546875 -0.0351562 11.5 0.03125 11.40625 0.03125 L 11.265625 0.03125 L 9.953125 -0.015625 C 9.953125 -0.015625 9.507812 0.00390625 8.625 0.046875 C 8.46875 0.046875 8.390625 -0.0078125 8.390625 -0.125 C 8.390625 -0.257812 8.503906 -0.335938 8.734375 -0.359375 C 8.816406 -0.367188 8.90625 -0.421875 9 -0.515625 C 9.101562 -0.617188 9.171875 -0.757812 9.203125 -0.9375 C 9.242188 -1.125 9.265625 -1.378906 9.265625 -1.703125 C 9.265625 -2.035156 9.257812 -2.394531 9.25 -2.78125 C 9.238281 -3.164062 9.222656 -3.535156 9.203125 -3.890625 C 9.191406 -4.253906 9.175781 -4.597656 9.15625 -4.921875 C 9.132812 -5.242188 9.125 -5.507812 9.125 -5.71875 L 9.09375 -6.03125 C 9.09375 -6.394531 9.054688 -6.578125 8.984375 -6.578125 C 8.953125 -6.578125 8.925781 -6.5625 8.90625 -6.53125 C 8.882812 -6.507812 8.863281 -6.488281 8.84375 -6.46875 C 8.832031 -6.457031 8.816406 -6.429688 8.796875 -6.390625 C 8.773438 -6.347656 8.753906 -6.3125 8.734375 -6.28125 C 8.722656 -6.257812 8.703125 -6.222656 8.671875 -6.171875 C 8.648438 -6.128906 8.632812 -6.09375 8.625 -6.0625 L 8.546875 -5.921875 C 8.515625 -5.859375 8.492188 -5.804688 8.484375 -5.765625 L 6.6875 -2.15625 C 6.488281 -1.738281 6.289062 -1.328125 6.09375 -0.921875 C 5.90625 -0.523438 5.789062 -0.296875 5.75 -0.234375 C 5.71875 -0.179688 5.671875 -0.15625 5.609375 -0.15625 C 5.546875 -0.15625 5.488281 -0.191406 5.4375 -0.265625 C 5.382812 -0.335938 5.304688 -0.5 5.203125 -0.75 C 5.097656 -1 5.007812 -1.203125 4.9375 -1.359375 C 3.363281 -4.546875 2.5625 -6.160156 2.53125 -6.203125 C 2.5 -6.253906 2.46875 -6.28125 2.4375 -6.28125 C 2.375 -6.28125 2.34375 -6.109375 2.34375 -5.765625 L 2.21875 -2.375 L 2.21875 -1.796875 C 2.21875 -1.097656 2.359375 -0.664062 2.640625 -0.5 C 2.785156 -0.414062 2.925781 -0.367188 3.0625 -0.359375 C 3.28125 -0.335938 3.390625 -0.28125 3.390625 -0.1875 C 3.390625 -0.09375 3.375 -0.03125 3.34375 0 C 3.320312 0.0195312 3.273438 0.03125 3.203125 0.03125 L 1.859375 -0.015625 Z M 0.8125 0.03125 "/></g></g><g style="fill:rgb(0%,0%,0%);fill-opacity:1;"><g transform="translate(120.208939, 332.928552)"><path style="stroke:none;" d="M 1.484375 -4.5625 L 1.53125 -6.78125 C 1.53125 -7.007812 1.519531 -7.398438 1.5 -7.953125 C 1.488281 -8.203125 1.378906 -8.394531 1.171875 -8.53125 C 0.972656 -8.664062 0.738281 -8.738281 0.46875 -8.75 C 0.320312 -8.75 0.25 -8.828125 0.25 -8.984375 C 0.25 -9.097656 0.367188 -9.15625 0.609375 -9.15625 L 0.96875 -9.125 L 4.09375 -9.0625 L 6.671875 -9.125 C 6.828125 -9.125 6.90625 -9.023438 6.90625 -8.828125 C 6.90625 -8.773438 6.878906 -8.601562 6.828125 -8.3125 C 6.773438 -8.03125 6.75 -7.804688 6.75 -7.640625 C 6.75 -7.367188 6.679688 -7.234375 6.546875 -7.234375 C 6.421875 -7.234375 6.359375 -7.332031 6.359375 -7.53125 C 6.359375 -7.738281 6.285156 -7.9375 6.140625 -8.125 C 5.992188 -8.3125 5.8125 -8.410156 5.59375 -8.421875 C 4.820312 -8.484375 4.234375 -8.515625 3.828125 -8.515625 L 3.5 -8.515625 C 3.050781 -8.515625 2.789062 -8.484375 2.71875 -8.421875 C 2.59375 -8.316406 2.53125 -7.375 2.53125 -5.59375 C 2.53125 -5.15625 2.613281 -4.9375 2.78125 -4.9375 L 4.03125 -4.9375 C 4.539062 -4.9375 4.882812 -4.953125 5.0625 -4.984375 C 5.507812 -5.066406 5.757812 -5.289062 5.8125 -5.65625 C 5.84375 -5.800781 5.898438 -5.875 5.984375 -5.875 C 6.066406 -5.875 6.117188 -5.859375 6.140625 -5.828125 C 6.160156 -5.804688 6.171875 -5.753906 6.171875 -5.671875 L 6.0625 -4.3125 L 6.09375 -3.53125 C 6.09375 -3.320312 6.066406 -3.21875 6.015625 -3.21875 C 5.878906 -3.21875 5.785156 -3.316406 5.734375 -3.515625 C 5.609375 -3.878906 5.5 -4.09375 5.40625 -4.15625 C 5.226562 -4.269531 4.914062 -4.328125 4.46875 -4.328125 L 3.546875 -4.328125 L 3.140625 -4.34375 L 3.046875 -4.34375 C 2.691406 -4.34375 2.515625 -4.257812 2.515625 -4.09375 L 2.484375 -2.25 L 2.484375 -1.734375 C 2.484375 -1.117188 2.585938 -0.773438 2.796875 -0.703125 C 3.015625 -0.640625 3.203125 -0.609375 3.359375 -0.609375 C 4.640625 -0.609375 5.566406 -0.710938 6.140625 -0.921875 C 6.640625 -1.109375 6.945312 -1.304688 7.0625 -1.515625 C 7.164062 -1.734375 7.257812 -1.84375 7.34375 -1.84375 C 7.445312 -1.84375 7.5 -1.769531 7.5 -1.625 C 7.5 -1.25 7.3125 -0.875 6.9375 -0.5 C 6.570312 -0.125 6.253906 0.0625 5.984375 0.0625 C 5.367188 0.0625 4.671875 0.0390625 3.890625 0 C 3.117188 -0.0390625 2.640625 -0.0625 2.453125 -0.0625 L 0.703125 0.046875 C 0.523438 0.046875 0.4375 0.00390625 0.4375 -0.078125 L 0.4375 -0.234375 C 0.4375 -0.285156 0.476562 -0.316406 0.5625 -0.328125 C 0.65625 -0.335938 0.800781 -0.390625 1 -0.484375 C 1.195312 -0.578125 1.328125 -0.773438 1.390625 -1.078125 C 1.453125 -1.378906 1.484375 -2.007812 1.484375 -2.96875 Z M 1.484375 -4.5625 "/></g></g><g style="fill:rgb(0%,0%,0%);fill-opacity:1;"><g transform="translate(130.151287, 332.928552)"><path style="stroke:none;" d="M 1.71875 -0.03125 L 0.6875 0.015625 C 0.53125 0.015625 0.429688 -0.00390625 0.390625 -0.046875 C 0.347656 -0.0859375 0.328125 -0.144531 0.328125 -0.21875 C 0.328125 -0.289062 0.347656 -0.335938 0.390625 -0.359375 C 0.441406 -0.378906 0.507812 -0.390625 0.59375 -0.390625 C 0.800781 -0.398438 0.976562 -0.460938 1.125 -0.578125 C 1.28125 -0.691406 1.40625 -0.796875 1.5 -0.890625 C 1.601562 -0.992188 1.707031 -1.109375 1.8125 -1.234375 C 1.925781 -1.367188 2.023438 -1.488281 2.109375 -1.59375 C 2.191406 -1.695312 2.296875 -1.832031 2.421875 -2 C 2.554688 -2.175781 2.65625 -2.3125 2.71875 -2.40625 C 2.78125 -2.5 2.878906 -2.644531 3.015625 -2.84375 C 3.160156 -3.039062 3.273438 -3.203125 3.359375 -3.328125 C 3.453125 -3.453125 3.585938 -3.628906 3.765625 -3.859375 C 3.953125 -4.097656 4.082031 -4.269531 4.15625 -4.375 C 4.226562 -4.476562 4.265625 -4.539062 4.265625 -4.5625 C 4.265625 -4.59375 4.242188 -4.632812 4.203125 -4.6875 C 4.171875 -4.75 4.109375 -4.84375 4.015625 -4.96875 C 3.921875 -5.101562 3.816406 -5.253906 3.703125 -5.421875 C 3.234375 -6.066406 2.835938 -6.617188 2.515625 -7.078125 C 1.828125 -8.085938 1.242188 -8.644531 0.765625 -8.75 C 0.578125 -8.75 0.441406 -8.773438 0.359375 -8.828125 C 0.285156 -8.890625 0.25 -8.953125 0.25 -9.015625 C 0.25 -9.078125 0.28125 -9.117188 0.34375 -9.140625 C 0.40625 -9.160156 0.554688 -9.171875 0.796875 -9.171875 L 1.9375 -9.125 L 3.28125 -9.140625 C 3.476562 -9.140625 3.578125 -9.097656 3.578125 -9.015625 C 3.578125 -8.941406 3.546875 -8.890625 3.484375 -8.859375 C 3.421875 -8.828125 3.351562 -8.8125 3.28125 -8.8125 C 3.09375 -8.789062 3 -8.695312 3 -8.53125 C 3 -8.363281 3.226562 -7.945312 3.6875 -7.28125 C 4.375 -6.226562 4.753906 -5.664062 4.828125 -5.59375 C 4.898438 -5.53125 4.945312 -5.5 4.96875 -5.5 C 5.039062 -5.5 5.125 -5.570312 5.21875 -5.71875 C 5.320312 -5.875 5.457031 -6.070312 5.625 -6.3125 C 5.800781 -6.550781 5.957031 -6.765625 6.09375 -6.953125 C 6.226562 -7.148438 6.363281 -7.359375 6.5 -7.578125 C 6.8125 -8.023438 6.96875 -8.3125 6.96875 -8.4375 C 6.96875 -8.5625 6.929688 -8.65625 6.859375 -8.71875 C 6.785156 -8.78125 6.707031 -8.816406 6.625 -8.828125 C 6.394531 -8.847656 6.28125 -8.921875 6.28125 -9.046875 C 6.28125 -9.128906 6.34375 -9.171875 6.46875 -9.171875 L 7.515625 -9.125 C 7.992188 -9.125 8.304688 -9.128906 8.453125 -9.140625 C 8.609375 -9.160156 8.695312 -9.171875 8.71875 -9.171875 C 8.851562 -9.171875 8.921875 -9.125 8.921875 -9.03125 C 8.921875 -8.945312 8.878906 -8.890625 8.796875 -8.859375 C 8.722656 -8.835938 8.601562 -8.796875 8.4375 -8.734375 C 8.269531 -8.671875 8.109375 -8.585938 7.953125 -8.484375 C 7.796875 -8.378906 7.570312 -8.128906 7.28125 -7.734375 C 5.957031 -5.953125 5.296875 -5.050781 5.296875 -5.03125 C 5.296875 -4.96875 5.472656 -4.679688 5.828125 -4.171875 C 6.179688 -3.671875 6.539062 -3.160156 6.90625 -2.640625 C 7.695312 -1.484375 8.253906 -0.773438 8.578125 -0.515625 C 8.609375 -0.484375 8.695312 -0.457031 8.84375 -0.4375 C 9.207031 -0.363281 9.390625 -0.273438 9.390625 -0.171875 C 9.390625 -0.128906 9.382812 -0.0976562 9.375 -0.078125 C 9.34375 -0.015625 9.210938 0.015625 8.984375 0.015625 L 7.609375 -0.078125 C 7.179688 -0.078125 6.863281 -0.0625 6.65625 -0.03125 C 6.445312 -0.0078125 6.328125 0 6.296875 0 C 6.179688 0 6.125 -0.0507812 6.125 -0.15625 C 6.125 -0.269531 6.234375 -0.347656 6.453125 -0.390625 C 6.671875 -0.441406 6.78125 -0.550781 6.78125 -0.71875 C 6.78125 -0.882812 6.53125 -1.332031 6.03125 -2.0625 C 5.4375 -2.914062 5.054688 -3.46875 4.890625 -3.71875 C 4.734375 -3.976562 4.625 -4.109375 4.5625 -4.109375 C 4.539062 -4.109375 4.441406 -3.96875 4.265625 -3.6875 C 4.085938 -3.40625 3.820312 -3.023438 3.46875 -2.546875 C 3.113281 -2.078125 2.847656 -1.695312 2.671875 -1.40625 C 2.492188 -1.113281 2.40625 -0.878906 2.40625 -0.703125 C 2.40625 -0.472656 2.632812 -0.359375 3.09375 -0.359375 C 3.195312 -0.359375 3.25 -0.285156 3.25 -0.140625 C 3.25 -0.046875 3.113281 0 2.84375 0 Z M 1.71875 -0.03125 "/></g></g><g style="fill:rgb(0%,0%,0%);fill-opacity:1;"><g transform="translate(141.981659, 332.928552)"><path style="stroke:none;" d="M 1.53125 -5.15625 L 1.546875 -6.546875 L 1.546875 -7.140625 C 1.546875 -7.515625 1.53125 -7.816406 1.5 -8.046875 C 1.46875 -8.273438 1.347656 -8.441406 1.140625 -8.546875 C 0.941406 -8.660156 0.742188 -8.722656 0.546875 -8.734375 C 0.347656 -8.742188 0.25 -8.8125 0.25 -8.9375 C 0.25 -9.0625 0.367188 -9.125 0.609375 -9.125 L 2.0625 -9.0625 L 3.203125 -9.09375 C 3.429688 -9.09375 3.546875 -9.03125 3.546875 -8.90625 C 3.546875 -8.84375 3.347656 -8.726562 2.953125 -8.5625 C 2.679688 -8.457031 2.546875 -7.96875 2.546875 -7.09375 L 2.5 -2.34375 C 2.5 -1.625 2.597656 -1.117188 2.796875 -0.828125 C 3.003906 -0.535156 3.21875 -0.390625 3.4375 -0.390625 L 3.703125 -0.375 C 3.753906 -0.375 3.8125 -0.359375 3.875 -0.328125 C 3.9375 -0.296875 3.96875 -0.25 3.96875 -0.1875 C 3.96875 -0.0625 3.859375 0 3.640625 0 L 2.421875 -0.046875 L 1.015625 0.015625 C 0.628906 0.015625 0.4375 -0.0507812 0.4375 -0.1875 C 0.4375 -0.300781 0.566406 -0.375 0.828125 -0.40625 C 0.929688 -0.414062 1.039062 -0.46875 1.15625 -0.5625 C 1.269531 -0.664062 1.335938 -0.78125 1.359375 -0.90625 C 1.390625 -1.03125 1.425781 -1.546875 1.46875 -2.453125 C 1.507812 -3.367188 1.53125 -4.03125 1.53125 -4.4375 Z M 1.53125 -5.15625 "/></g></g><g style="fill:rgb(0%,0%,0%);fill-opacity:1;"><g transform="translate(148.379152, 332.928552)"><path style="stroke:none;" d="M 0.5625 -4.171875 C 0.5625 -5.097656 0.738281 -5.929688 1.09375 -6.671875 C 1.457031 -7.421875 2.015625 -8.023438 2.765625 -8.484375 C 3.515625 -8.941406 4.40625 -9.171875 5.4375 -9.171875 C 5.957031 -9.171875 6.484375 -9.09375 7.015625 -8.9375 C 7.546875 -8.78125 7.96875 -8.628906 8.28125 -8.484375 L 8.765625 -8.234375 C 8.785156 -8.234375 8.828125 -8.253906 8.890625 -8.296875 C 8.953125 -8.335938 9 -8.359375 9.03125 -8.359375 C 9.070312 -8.359375 9.113281 -8.34375 9.15625 -8.3125 C 9.195312 -8.28125 9.21875 -8.179688 9.21875 -8.015625 C 9.226562 -7.859375 9.25 -7.640625 9.28125 -7.359375 C 9.3125 -7.085938 9.335938 -6.859375 9.359375 -6.671875 C 9.390625 -6.492188 9.40625 -6.390625 9.40625 -6.359375 C 9.40625 -6.203125 9.351562 -6.125 9.25 -6.125 C 9.164062 -6.125 9.09375 -6.1875 9.03125 -6.3125 C 8.195312 -7.863281 7 -8.640625 5.4375 -8.640625 C 4.363281 -8.640625 3.484375 -8.296875 2.796875 -7.609375 C 2.109375 -6.929688 1.765625 -6.039062 1.765625 -4.9375 C 1.765625 -3.695312 2.082031 -2.640625 2.71875 -1.765625 C 3.050781 -1.328125 3.5 -0.976562 4.0625 -0.71875 C 4.625 -0.457031 5.28125 -0.328125 6.03125 -0.328125 C 7.269531 -0.328125 8.304688 -0.972656 9.140625 -2.265625 C 9.179688 -2.316406 9.25 -2.34375 9.34375 -2.34375 C 9.414062 -2.34375 9.453125 -2.289062 9.453125 -2.1875 C 9.453125 -2.082031 9.4375 -1.945312 9.40625 -1.78125 C 9.375 -1.625 9.335938 -1.445312 9.296875 -1.25 C 9.253906 -1.0625 9.226562 -0.945312 9.21875 -0.90625 C 9.207031 -0.8125 9.140625 -0.738281 9.015625 -0.6875 C 8.554688 -0.457031 8.195312 -0.289062 7.9375 -0.1875 C 7.25 0.101562 6.515625 0.25 5.734375 0.25 C 4.960938 0.25 4.273438 0.160156 3.671875 -0.015625 C 3.078125 -0.191406 2.585938 -0.425781 2.203125 -0.71875 C 1.828125 -1.007812 1.515625 -1.351562 1.265625 -1.75 C 0.796875 -2.4375 0.5625 -3.242188 0.5625 -4.171875 Z M 0.5625 -4.171875 "/></g></g><g style="fill:rgb(0%,0%,0%);fill-opacity:1;"><g transform="translate(160.92877, 332.928552)"><path style="stroke:none;" d="M 1.734375 0 L 0.625 0.046875 C 0.375 0.046875 0.25 -0.00390625 0.25 -0.109375 C 0.25 -0.222656 0.316406 -0.300781 0.453125 -0.34375 C 0.722656 -0.445312 0.960938 -0.675781 1.171875 -1.03125 C 1.378906 -1.382812 1.894531 -2.457031 2.71875 -4.25 C 3.539062 -6.050781 4.273438 -7.632812 4.921875 -9 C 4.984375 -9.132812 5.035156 -9.21875 5.078125 -9.25 C 5.128906 -9.28125 5.195312 -9.296875 5.28125 -9.296875 C 5.375 -9.296875 5.429688 -9.28125 5.453125 -9.25 C 5.484375 -9.21875 5.53125 -9.101562 5.59375 -8.90625 C 5.664062 -8.707031 5.71875 -8.554688 5.75 -8.453125 C 5.789062 -8.347656 5.851562 -8.179688 5.9375 -7.953125 C 6.03125 -7.722656 6.171875 -7.375 6.359375 -6.90625 C 6.546875 -6.445312 6.972656 -5.4375 7.640625 -3.875 C 8.316406 -2.3125 8.707031 -1.425781 8.8125 -1.21875 C 8.914062 -1.007812 9.054688 -0.828125 9.234375 -0.671875 C 9.410156 -0.523438 9.566406 -0.441406 9.703125 -0.421875 C 9.835938 -0.410156 9.945312 -0.390625 10.03125 -0.359375 C 10.125 -0.335938 10.171875 -0.273438 10.171875 -0.171875 C 10.171875 -0.0351562 10.054688 0.03125 9.828125 0.03125 L 8.671875 -0.046875 L 7.46875 0 C 7.207031 0 7.039062 -0.0078125 6.96875 -0.03125 C 6.894531 -0.0507812 6.859375 -0.09375 6.859375 -0.15625 C 6.859375 -0.226562 6.890625 -0.285156 6.953125 -0.328125 C 7.023438 -0.367188 7.097656 -0.394531 7.171875 -0.40625 C 7.253906 -0.414062 7.328125 -0.453125 7.390625 -0.515625 C 7.460938 -0.578125 7.5 -0.679688 7.5 -0.828125 C 7.5 -0.984375 7.390625 -1.351562 7.171875 -1.9375 C 6.960938 -2.519531 6.785156 -2.945312 6.640625 -3.21875 C 6.566406 -3.363281 6.390625 -3.4375 6.109375 -3.4375 L 4.5625 -3.421875 L 3.875 -3.421875 C 3.488281 -3.421875 3.242188 -3.394531 3.140625 -3.34375 C 3.046875 -3.300781 2.96875 -3.210938 2.90625 -3.078125 C 2.84375 -2.941406 2.75 -2.75 2.625 -2.5 C 2.507812 -2.257812 2.429688 -2.09375 2.390625 -2 C 2.347656 -1.90625 2.296875 -1.785156 2.234375 -1.640625 C 2.117188 -1.390625 2.0625 -1.175781 2.0625 -1 C 2.0625 -0.832031 2.109375 -0.695312 2.203125 -0.59375 C 2.304688 -0.488281 2.421875 -0.425781 2.546875 -0.40625 C 2.859375 -0.382812 3.015625 -0.304688 3.015625 -0.171875 C 3.015625 -0.109375 3 -0.0625 2.96875 -0.03125 C 2.945312 0 2.890625 0.015625 2.796875 0.015625 Z M 4.828125 -7.328125 C 4.753906 -7.328125 4.507812 -6.851562 4.09375 -5.90625 C 3.6875 -4.957031 3.484375 -4.429688 3.484375 -4.328125 C 3.484375 -4.222656 3.519531 -4.15625 3.59375 -4.125 C 3.675781 -4.101562 3.859375 -4.09375 4.140625 -4.09375 L 4.53125 -4.09375 L 5.75 -4.109375 C 6.082031 -4.109375 6.25 -4.171875 6.25 -4.296875 C 6.25 -4.421875 6.039062 -4.957031 5.625 -5.90625 C 5.207031 -6.851562 4.941406 -7.328125 4.828125 -7.328125 Z M 4.828125 -7.328125 "/></g></g><g style="fill:rgb(0%,0%,0%);fill-opacity:1;"><g transform="translate(173.542602, 332.928552)"><path style="stroke:none;" d="M 1.84375 0.03125 L 0.75 0.046875 C 0.5625 0.046875 0.46875 -0.0195312 0.46875 -0.15625 C 0.46875 -0.226562 0.523438 -0.273438 0.640625 -0.296875 C 0.753906 -0.316406 0.890625 -0.382812 1.046875 -0.5 C 1.210938 -0.613281 1.328125 -0.796875 1.390625 -1.046875 C 1.460938 -1.296875 1.535156 -2.117188 1.609375 -3.515625 C 1.691406 -4.910156 1.734375 -5.925781 1.734375 -6.5625 C 1.734375 -7.195312 1.628906 -7.695312 1.421875 -8.0625 C 1.222656 -8.425781 0.890625 -8.632812 0.421875 -8.6875 C 0.304688 -8.6875 0.25 -8.75 0.25 -8.875 C 0.25 -8.925781 0.28125 -8.972656 0.34375 -9.015625 C 0.40625 -9.066406 0.484375 -9.09375 0.578125 -9.09375 L 1.0625 -9.078125 L 1.703125 -9.109375 C 1.773438 -9.109375 1.863281 -9.082031 1.96875 -9.03125 C 2.070312 -8.988281 2.128906 -8.945312 2.140625 -8.90625 C 2.160156 -8.863281 2.207031 -8.796875 2.28125 -8.703125 C 2.363281 -8.617188 2.46875 -8.503906 2.59375 -8.359375 C 2.71875 -8.210938 2.832031 -8.070312 2.9375 -7.9375 C 4.101562 -6.425781 5.660156 -4.597656 7.609375 -2.453125 C 7.660156 -2.390625 7.722656 -2.316406 7.796875 -2.234375 C 7.867188 -2.160156 7.921875 -2.101562 7.953125 -2.0625 C 7.984375 -2.03125 8.015625 -2 8.046875 -1.96875 C 8.109375 -1.90625 8.15625 -1.875 8.1875 -1.875 C 8.28125 -1.875 8.328125 -2.140625 8.328125 -2.671875 L 8.328125 -4.171875 L 8.296875 -6.8125 L 8.296875 -6.890625 C 8.296875 -7.679688 8.160156 -8.1875 7.890625 -8.40625 C 7.785156 -8.476562 7.695312 -8.523438 7.625 -8.546875 C 7.5625 -8.566406 7.460938 -8.59375 7.328125 -8.625 C 6.984375 -8.6875 6.8125 -8.78125 6.8125 -8.90625 C 6.8125 -9.03125 6.890625 -9.09375 7.046875 -9.09375 L 8.265625 -9.078125 C 8.265625 -9.078125 8.648438 -9.085938 9.421875 -9.109375 C 9.566406 -9.109375 9.664062 -9.09375 9.71875 -9.0625 C 9.78125 -9.03125 9.8125 -8.984375 9.8125 -8.921875 C 9.8125 -8.867188 9.785156 -8.820312 9.734375 -8.78125 C 9.671875 -8.738281 9.546875 -8.6875 9.359375 -8.625 C 9.078125 -8.476562 8.9375 -8 8.9375 -7.1875 L 8.9375 -6.6875 L 8.796875 -0.328125 L 8.796875 -0.078125 C 8.796875 0.117188 8.738281 0.21875 8.625 0.21875 C 8.539062 0.21875 8.46875 0.1875 8.40625 0.125 C 5.570312 -3.164062 3.875 -5.117188 3.3125 -5.734375 C 2.757812 -6.359375 2.457031 -6.671875 2.40625 -6.671875 C 2.3125 -6.671875 2.265625 -6.320312 2.265625 -5.625 C 2.265625 -4.925781 2.25 -4.109375 2.21875 -3.171875 C 2.1875 -2.234375 2.171875 -1.722656 2.171875 -1.640625 C 2.171875 -1.253906 2.234375 -0.960938 2.359375 -0.765625 C 2.492188 -0.566406 2.640625 -0.453125 2.796875 -0.421875 C 2.953125 -0.398438 3.09375 -0.375 3.21875 -0.34375 C 3.351562 -0.3125 3.421875 -0.25 3.421875 -0.15625 C 3.421875 -0.0703125 3.40625 -0.0195312 3.375 0 C 3.351562 0.03125 3.300781 0.046875 3.21875 0.046875 Z M 1.84375 0.03125 "/></g></g><g style="fill:rgb(0%,0%,0%);fill-opacity:1;"><g transform="translate(185.976624, 332.928552)"><path style="stroke:none;" d=""/></g></g><g style="fill:rgb(0%,0%,0%);fill-opacity:1;"><g transform="translate(190.897097, 332.928552)"><path style="stroke:none;" d="M 0.5625 -4.171875 C 0.5625 -5.097656 0.738281 -5.929688 1.09375 -6.671875 C 1.457031 -7.421875 2.015625 -8.023438 2.765625 -8.484375 C 3.515625 -8.941406 4.40625 -9.171875 5.4375 -9.171875 C 5.957031 -9.171875 6.484375 -9.09375 7.015625 -8.9375 C 7.546875 -8.78125 7.96875 -8.628906 8.28125 -8.484375 L 8.765625 -8.234375 C 8.785156 -8.234375 8.828125 -8.253906 8.890625 -8.296875 C 8.953125 -8.335938 9 -8.359375 9.03125 -8.359375 C 9.070312 -8.359375 9.113281 -8.34375 9.15625 -8.3125 C 9.195312 -8.28125 9.21875 -8.179688 9.21875 -8.015625 C 9.226562 -7.859375 9.25 -7.640625 9.28125 -7.359375 C 9.3125 -7.085938 9.335938 -6.859375 9.359375 -6.671875 C 9.390625 -6.492188 9.40625 -6.390625 9.40625 -6.359375 C 9.40625 -6.203125 9.351562 -6.125 9.25 -6.125 C 9.164062 -6.125 9.09375 -6.1875 9.03125 -6.3125 C 8.195312 -7.863281 7 -8.640625 5.4375 -8.640625 C 4.363281 -8.640625 3.484375 -8.296875 2.796875 -7.609375 C 2.109375 -6.929688 1.765625 -6.039062 1.765625 -4.9375 C 1.765625 -3.695312 2.082031 -2.640625 2.71875 -1.765625 C 3.050781 -1.328125 3.5 -0.976562 4.0625 -0.71875 C 4.625 -0.457031 5.28125 -0.328125 6.03125 -0.328125 C 7.269531 -0.328125 8.304688 -0.972656 9.140625 -2.265625 C 9.179688 -2.316406 9.25 -2.34375 9.34375 -2.34375 C 9.414062 -2.34375 9.453125 -2.289062 9.453125 -2.1875 C 9.453125 -2.082031 9.4375 -1.945312 9.40625 -1.78125 C 9.375 -1.625 9.335938 -1.445312 9.296875 -1.25 C 9.253906 -1.0625 9.226562 -0.945312 9.21875 -0.90625 C 9.207031 -0.8125 9.140625 -0.738281 9.015625 -0.6875 C 8.554688 -0.457031 8.195312 -0.289062 7.9375 -0.1875 C 7.25 0.101562 6.515625 0.25 5.734375 0.25 C 4.960938 0.25 4.273438 0.160156 3.671875 -0.015625 C 3.078125 -0.191406 2.585938 -0.425781 2.203125 -0.71875 C 1.828125 -1.007812 1.515625 -1.351562 1.265625 -1.75 C 0.796875 -2.4375 0.5625 -3.242188 0.5625 -4.171875 Z M 0.5625 -4.171875 "/></g></g><g style="fill:rgb(0%,0%,0%);fill-opacity:1;"><g transform="translate(203.446716, 332.928552)"><path style="stroke:none;" d="M 1.46875 -5.53125 L 1.484375 -7.390625 C 1.484375 -7.859375 1.425781 -8.179688 1.3125 -8.359375 C 1.207031 -8.535156 0.953125 -8.648438 0.546875 -8.703125 C 0.347656 -8.734375 0.25 -8.816406 0.25 -8.953125 C 0.25 -9.023438 0.273438 -9.070312 0.328125 -9.09375 C 0.378906 -9.113281 0.453125 -9.125 0.546875 -9.125 L 2 -9.0625 L 3.21875 -9.09375 C 3.394531 -9.09375 3.484375 -9.03125 3.484375 -8.90625 C 3.484375 -8.832031 3.453125 -8.785156 3.390625 -8.765625 C 3.328125 -8.753906 3.25 -8.742188 3.15625 -8.734375 C 3.070312 -8.722656 2.988281 -8.691406 2.90625 -8.640625 C 2.6875 -8.523438 2.578125 -8.128906 2.578125 -7.453125 L 2.578125 -7.09375 L 2.5625 -4.3125 C 2.5625 -3.46875 2.585938 -2.914062 2.640625 -2.65625 C 2.691406 -2.394531 2.75 -2.15625 2.8125 -1.9375 C 2.882812 -1.726562 2.96875 -1.554688 3.0625 -1.421875 C 3.164062 -1.296875 3.289062 -1.15625 3.4375 -1 C 3.59375 -0.84375 3.769531 -0.722656 3.96875 -0.640625 C 4.425781 -0.453125 4.953125 -0.359375 5.546875 -0.359375 C 6.472656 -0.359375 7.113281 -0.460938 7.46875 -0.671875 C 7.625 -0.753906 7.800781 -0.882812 8 -1.0625 C 8.207031 -1.25 8.367188 -1.476562 8.484375 -1.75 C 8.742188 -2.382812 8.875 -3.1875 8.875 -4.15625 L 8.859375 -6.890625 C 8.859375 -7.179688 8.851562 -7.410156 8.84375 -7.578125 C 8.832031 -7.753906 8.789062 -7.945312 8.71875 -8.15625 C 8.644531 -8.363281 8.550781 -8.503906 8.4375 -8.578125 C 8.320312 -8.648438 8.195312 -8.695312 8.0625 -8.71875 C 7.925781 -8.75 7.816406 -8.769531 7.734375 -8.78125 C 7.648438 -8.789062 7.609375 -8.828125 7.609375 -8.890625 C 7.609375 -9.023438 7.691406 -9.09375 7.859375 -9.09375 L 8.84375 -9.0625 L 9.9375 -9.109375 C 10.113281 -9.109375 10.203125 -9.050781 10.203125 -8.9375 C 10.203125 -8.875 10.109375 -8.785156 9.921875 -8.671875 C 9.742188 -8.566406 9.632812 -8.472656 9.59375 -8.390625 C 9.5 -8.210938 9.453125 -7.929688 9.453125 -7.546875 L 9.46875 -6.671875 C 9.46875 -5.035156 9.398438 -3.78125 9.265625 -2.90625 C 9.128906 -2.03125 8.914062 -1.394531 8.625 -1 C 8.050781 -0.164062 7.035156 0.25 5.578125 0.25 C 4.128906 0.25 3.101562 -0.0234375 2.5 -0.578125 C 2.03125 -1.015625 1.738281 -1.535156 1.625 -2.140625 C 1.519531 -2.753906 1.46875 -3.8125 1.46875 -5.3125 Z M 1.46875 -5.53125 "/></g></g><g style="fill:rgb(0%,0%,0%);fill-opacity:1;"><g transform="translate(216.099085, 332.928552)"><path style="stroke:none;" d="M 1.53125 -5.15625 L 1.546875 -6.546875 L 1.546875 -7.140625 C 1.546875 -7.515625 1.53125 -7.816406 1.5 -8.046875 C 1.46875 -8.273438 1.347656 -8.441406 1.140625 -8.546875 C 0.941406 -8.660156 0.742188 -8.722656 0.546875 -8.734375 C 0.347656 -8.742188 0.25 -8.8125 0.25 -8.9375 C 0.25 -9.0625 0.367188 -9.125 0.609375 -9.125 L 2.0625 -9.0625 L 3.203125 -9.09375 C 3.429688 -9.09375 3.546875 -9.03125 3.546875 -8.90625 C 3.546875 -8.84375 3.347656 -8.726562 2.953125 -8.5625 C 2.679688 -8.457031 2.546875 -7.96875 2.546875 -7.09375 L 2.5 -2.34375 C 2.5 -1.625 2.597656 -1.117188 2.796875 -0.828125 C 3.003906 -0.535156 3.21875 -0.390625 3.4375 -0.390625 L 3.703125 -0.375 C 3.753906 -0.375 3.8125 -0.359375 3.875 -0.328125 C 3.9375 -0.296875 3.96875 -0.25 3.96875 -0.1875 C 3.96875 -0.0625 3.859375 0 3.640625 0 L 2.421875 -0.046875 L 1.015625 0.015625 C 0.628906 0.015625 0.4375 -0.0507812 0.4375 -0.1875 C 0.4375 -0.300781 0.566406 -0.375 0.828125 -0.40625 C 0.929688 -0.414062 1.039062 -0.46875 1.15625 -0.5625 C 1.269531 -0.664062 1.335938 -0.78125 1.359375 -0.90625 C 1.390625 -1.03125 1.425781 -1.546875 1.46875 -2.453125 C 1.507812 -3.367188 1.53125 -4.03125 1.53125 -4.4375 Z M 1.53125 -5.15625 "/></g></g><g style="fill:rgb(0%,0%,0%);fill-opacity:1;"><g transform="translate(222.496584, 332.928552)"><path style="stroke:none;" d="M 5.84375 -8.84375 L 6.140625 -8.953125 C 6.253906 -8.953125 6.316406 -8.914062 6.328125 -8.84375 C 6.515625 -7.8125 6.609375 -7.203125 6.609375 -7.015625 C 6.609375 -6.835938 6.546875 -6.75 6.421875 -6.75 C 6.347656 -6.75 6.273438 -6.835938 6.203125 -7.015625 C 6.128906 -7.203125 6.039062 -7.367188 5.9375 -7.515625 C 5.84375 -7.671875 5.773438 -7.769531 5.734375 -7.8125 C 5.691406 -7.863281 5.578125 -7.96875 5.390625 -8.125 C 4.929688 -8.539062 4.40625 -8.75 3.8125 -8.75 C 3.21875 -8.75 2.738281 -8.617188 2.375 -8.359375 C 2.019531 -8.097656 1.84375 -7.765625 1.84375 -7.359375 C 1.84375 -6.953125 1.945312 -6.625 2.15625 -6.375 C 2.363281 -6.125 2.640625 -5.929688 2.984375 -5.796875 C 3.335938 -5.660156 3.707031 -5.53125 4.09375 -5.40625 C 5.132812 -5.082031 5.898438 -4.660156 6.390625 -4.140625 C 6.734375 -3.765625 6.90625 -3.304688 6.90625 -2.765625 C 6.90625 -1.859375 6.617188 -1.140625 6.046875 -0.609375 C 5.472656 -0.0859375 4.765625 0.171875 3.921875 0.171875 C 3.328125 0.171875 2.847656 0.132812 2.484375 0.0625 C 2.128906 0 1.765625 -0.128906 1.390625 -0.328125 C 1.273438 -0.390625 1.140625 -0.71875 0.984375 -1.3125 C 0.828125 -1.914062 0.75 -2.289062 0.75 -2.4375 C 0.75 -2.59375 0.804688 -2.671875 0.921875 -2.671875 C 1.046875 -2.671875 1.117188 -2.628906 1.140625 -2.546875 C 1.460938 -1.785156 1.835938 -1.242188 2.265625 -0.921875 C 2.722656 -0.566406 3.28125 -0.390625 3.9375 -0.390625 C 4.59375 -0.390625 5.113281 -0.554688 5.5 -0.890625 C 5.894531 -1.234375 6.09375 -1.679688 6.09375 -2.234375 C 6.09375 -2.640625 5.957031 -2.972656 5.6875 -3.234375 C 5.425781 -3.503906 5.125 -3.703125 4.78125 -3.828125 C 3.5 -4.253906 2.632812 -4.601562 2.1875 -4.875 C 1.40625 -5.332031 1.015625 -5.953125 1.015625 -6.734375 C 1.015625 -7.515625 1.289062 -8.128906 1.84375 -8.578125 C 2.394531 -9.035156 3.113281 -9.265625 4 -9.265625 C 4.320312 -9.265625 4.707031 -9.191406 5.15625 -9.046875 C 5.601562 -8.910156 5.832031 -8.84375 5.84375 -8.84375 Z M 5.84375 -8.84375 "/></g></g><g style="fill:rgb(0%,0%,0%);fill-opacity:1;"><g transform="translate(232.33619, 332.928552)"><path style="stroke:none;" d="M 1.53125 -5.15625 L 1.546875 -6.546875 L 1.546875 -7.140625 C 1.546875 -7.515625 1.53125 -7.816406 1.5 -8.046875 C 1.46875 -8.273438 1.347656 -8.441406 1.140625 -8.546875 C 0.941406 -8.660156 0.742188 -8.722656 0.546875 -8.734375 C 0.347656 -8.742188 0.25 -8.8125 0.25 -8.9375 C 0.25 -9.0625 0.367188 -9.125 0.609375 -9.125 L 2.0625 -9.0625 L 3.203125 -9.09375 C 3.429688 -9.09375 3.546875 -9.03125 3.546875 -8.90625 C 3.546875 -8.84375 3.347656 -8.726562 2.953125 -8.5625 C 2.679688 -8.457031 2.546875 -7.96875 2.546875 -7.09375 L 2.5 -2.34375 C 2.5 -1.625 2.597656 -1.117188 2.796875 -0.828125 C 3.003906 -0.535156 3.21875 -0.390625 3.4375 -0.390625 L 3.703125 -0.375 C 3.753906 -0.375 3.8125 -0.359375 3.875 -0.328125 C 3.9375 -0.296875 3.96875 -0.25 3.96875 -0.1875 C 3.96875 -0.0625 3.859375 0 3.640625 0 L 2.421875 -0.046875 L 1.015625 0.015625 C 0.628906 0.015625 0.4375 -0.0507812 0.4375 -0.1875 C 0.4375 -0.300781 0.566406 -0.375 0.828125 -0.40625 C 0.929688 -0.414062 1.039062 -0.46875 1.15625 -0.5625 C 1.269531 -0.664062 1.335938 -0.78125 1.359375 -0.90625 C 1.390625 -1.03125 1.425781 -1.546875 1.46875 -2.453125 C 1.507812 -3.367188 1.53125 -4.03125 1.53125 -4.4375 Z M 1.53125 -5.15625 "/></g></g><g style="fill:rgb(0%,0%,0%);fill-opacity:1;"><g transform="translate(238.733689, 332.928552)"><path style="stroke:none;" d="M 1.84375 0.03125 L 0.75 0.046875 C 0.5625 0.046875 0.46875 -0.0195312 0.46875 -0.15625 C 0.46875 -0.226562 0.523438 -0.273438 0.640625 -0.296875 C 0.753906 -0.316406 0.890625 -0.382812 1.046875 -0.5 C 1.210938 -0.613281 1.328125 -0.796875 1.390625 -1.046875 C 1.460938 -1.296875 1.535156 -2.117188 1.609375 -3.515625 C 1.691406 -4.910156 1.734375 -5.925781 1.734375 -6.5625 C 1.734375 -7.195312 1.628906 -7.695312 1.421875 -8.0625 C 1.222656 -8.425781 0.890625 -8.632812 0.421875 -8.6875 C 0.304688 -8.6875 0.25 -8.75 0.25 -8.875 C 0.25 -8.925781 0.28125 -8.972656 0.34375 -9.015625 C 0.40625 -9.066406 0.484375 -9.09375 0.578125 -9.09375 L 1.0625 -9.078125 L 1.703125 -9.109375 C 1.773438 -9.109375 1.863281 -9.082031 1.96875 -9.03125 C 2.070312 -8.988281 2.128906 -8.945312 2.140625 -8.90625 C 2.160156 -8.863281 2.207031 -8.796875 2.28125 -8.703125 C 2.363281 -8.617188 2.46875 -8.503906 2.59375 -8.359375 C 2.71875 -8.210938 2.832031 -8.070312 2.9375 -7.9375 C 4.101562 -6.425781 5.660156 -4.597656 7.609375 -2.453125 C 7.660156 -2.390625 7.722656 -2.316406 7.796875 -2.234375 C 7.867188 -2.160156 7.921875 -2.101562 7.953125 -2.0625 C 7.984375 -2.03125 8.015625 -2 8.046875 -1.96875 C 8.109375 -1.90625 8.15625 -1.875 8.1875 -1.875 C 8.28125 -1.875 8.328125 -2.140625 8.328125 -2.671875 L 8.328125 -4.171875 L 8.296875 -6.8125 L 8.296875 -6.890625 C 8.296875 -7.679688 8.160156 -8.1875 7.890625 -8.40625 C 7.785156 -8.476562 7.695312 -8.523438 7.625 -8.546875 C 7.5625 -8.566406 7.460938 -8.59375 7.328125 -8.625 C 6.984375 -8.6875 6.8125 -8.78125 6.8125 -8.90625 C 6.8125 -9.03125 6.890625 -9.09375 7.046875 -9.09375 L 8.265625 -9.078125 C 8.265625 -9.078125 8.648438 -9.085938 9.421875 -9.109375 C 9.566406 -9.109375 9.664062 -9.09375 9.71875 -9.0625 C 9.78125 -9.03125 9.8125 -8.984375 9.8125 -8.921875 C 9.8125 -8.867188 9.785156 -8.820312 9.734375 -8.78125 C 9.671875 -8.738281 9.546875 -8.6875 9.359375 -8.625 C 9.078125 -8.476562 8.9375 -8 8.9375 -7.1875 L 8.9375 -6.6875 L 8.796875 -0.328125 L 8.796875 -0.078125 C 8.796875 0.117188 8.738281 0.21875 8.625 0.21875 C 8.539062 0.21875 8.46875 0.1875 8.40625 0.125 C 5.570312 -3.164062 3.875 -5.117188 3.3125 -5.734375 C 2.757812 -6.359375 2.457031 -6.671875 2.40625 -6.671875 C 2.3125 -6.671875 2.265625 -6.320312 2.265625 -5.625 C 2.265625 -4.925781 2.25 -4.109375 2.21875 -3.171875 C 2.1875 -2.234375 2.171875 -1.722656 2.171875 -1.640625 C 2.171875 -1.253906 2.234375 -0.960938 2.359375 -0.765625 C 2.492188 -0.566406 2.640625 -0.453125 2.796875 -0.421875 C 2.953125 -0.398438 3.09375 -0.375 3.21875 -0.34375 C 3.351562 -0.3125 3.421875 -0.25 3.421875 -0.15625 C 3.421875 -0.0703125 3.40625 -0.0195312 3.375 0 C 3.351562 0.03125 3.300781 0.046875 3.21875 0.046875 Z M 1.84375 0.03125 "/></g></g><g style="fill:rgb(0%,0%,0%);fill-opacity:1;"><g transform="translate(251.167717, 332.928552)"><path style="stroke:none;" d="M 1.484375 -4.5625 L 1.53125 -6.78125 C 1.53125 -7.007812 1.519531 -7.398438 1.5 -7.953125 C 1.488281 -8.203125 1.378906 -8.394531 1.171875 -8.53125 C 0.972656 -8.664062 0.738281 -8.738281 0.46875 -8.75 C 0.320312 -8.75 0.25 -8.828125 0.25 -8.984375 C 0.25 -9.097656 0.367188 -9.15625 0.609375 -9.15625 L 0.96875 -9.125 L 4.09375 -9.0625 L 6.671875 -9.125 C 6.828125 -9.125 6.90625 -9.023438 6.90625 -8.828125 C 6.90625 -8.773438 6.878906 -8.601562 6.828125 -8.3125 C 6.773438 -8.03125 6.75 -7.804688 6.75 -7.640625 C 6.75 -7.367188 6.679688 -7.234375 6.546875 -7.234375 C 6.421875 -7.234375 6.359375 -7.332031 6.359375 -7.53125 C 6.359375 -7.738281 6.285156 -7.9375 6.140625 -8.125 C 5.992188 -8.3125 5.8125 -8.410156 5.59375 -8.421875 C 4.820312 -8.484375 4.234375 -8.515625 3.828125 -8.515625 L 3.5 -8.515625 C 3.050781 -8.515625 2.789062 -8.484375 2.71875 -8.421875 C 2.59375 -8.316406 2.53125 -7.375 2.53125 -5.59375 C 2.53125 -5.15625 2.613281 -4.9375 2.78125 -4.9375 L 4.03125 -4.9375 C 4.539062 -4.9375 4.882812 -4.953125 5.0625 -4.984375 C 5.507812 -5.066406 5.757812 -5.289062 5.8125 -5.65625 C 5.84375 -5.800781 5.898438 -5.875 5.984375 -5.875 C 6.066406 -5.875 6.117188 -5.859375 6.140625 -5.828125 C 6.160156 -5.804688 6.171875 -5.753906 6.171875 -5.671875 L 6.0625 -4.3125 L 6.09375 -3.53125 C 6.09375 -3.320312 6.066406 -3.21875 6.015625 -3.21875 C 5.878906 -3.21875 5.785156 -3.316406 5.734375 -3.515625 C 5.609375 -3.878906 5.5 -4.09375 5.40625 -4.15625 C 5.226562 -4.269531 4.914062 -4.328125 4.46875 -4.328125 L 3.546875 -4.328125 L 3.140625 -4.34375 L 3.046875 -4.34375 C 2.691406 -4.34375 2.515625 -4.257812 2.515625 -4.09375 L 2.484375 -2.25 L 2.484375 -1.734375 C 2.484375 -1.117188 2.585938 -0.773438 2.796875 -0.703125 C 3.015625 -0.640625 3.203125 -0.609375 3.359375 -0.609375 C 4.640625 -0.609375 5.566406 -0.710938 6.140625 -0.921875 C 6.640625 -1.109375 6.945312 -1.304688 7.0625 -1.515625 C 7.164062 -1.734375 7.257812 -1.84375 7.34375 -1.84375 C 7.445312 -1.84375 7.5 -1.769531 7.5 -1.625 C 7.5 -1.25 7.3125 -0.875 6.9375 -0.5 C 6.570312 -0.125 6.253906 0.0625 5.984375 0.0625 C 5.367188 0.0625 4.671875 0.0390625 3.890625 0 C 3.117188 -0.0390625 2.640625 -0.0625 2.453125 -0.0625 L 0.703125 0.046875 C 0.523438 0.046875 0.4375 0.00390625 0.4375 -0.078125 L 0.4375 -0.234375 C 0.4375 -0.285156 0.476562 -0.316406 0.5625 -0.328125 C 0.65625 -0.335938 0.800781 -0.390625 1 -0.484375 C 1.195312 -0.578125 1.328125 -0.773438 1.390625 -1.078125 C 1.453125 -1.378906 1.484375 -2.007812 1.484375 -2.96875 Z M 1.484375 -4.5625 "/></g></g></g></svg>