<?xml version="1.0" encoding="UTF-8"?><svg xmlns="http://www.w3.org/2000/svg" xmlns:xlink="http://www.w3.org/1999/xlink" contentScriptType="text/ecmascript" width="375pt" zoomAndPan="magnify" contentStyleType="text/css" viewBox="0 0 375 374.999991" height="374.999991pt" preserveAspectRatio="xMidYMid meet" version="1.2"><defs><clipPath xml:id="clip1" id="clip1"><path d="M 6.460938 6.460938 L 368.710938 6.460938 L 368.710938 368.710938 L 6.460938 368.710938 Z M 6.460938 6.460938 "/></clipPath></defs><g xml:id="surface1" id="surface1"><g clip-rule="nonzero" clip-path="url(#clip1)"><path style=" stroke:none;fill-rule:nonzero;fill:rgb(0%,0%,0%);fill-opacity:1;" d="M 368.875 6.460938 L 368.875 187.667969 C 318.839844 187.667969 278.273438 147.105469 278.273438 97.066406 C 278.269531 147.105469 237.707031 187.667969 187.667969 187.667969 L 187.667969 6.460938 C 237.707031 6.460938 278.269531 47.023438 278.273438 97.0625 C 278.273438 47.023438 318.835938 6.460938 368.875 6.460938 Z M 187.667969 97.0625 C 187.667969 147.101562 147.101562 187.667969 97.0625 187.667969 C 47.023438 187.667969 6.460938 147.101562 6.460938 97.0625 C 6.460938 47.023438 47.023438 6.460938 97.0625 6.460938 C 147.101562 6.460938 187.667969 47.023438 187.667969 97.0625 Z M 170.734375 65.949219 C 166.707031 56.429688 160.941406 47.878906 153.597656 40.53125 C 146.25 33.183594 137.699219 27.417969 128.179688 23.394531 C 118.332031 19.226562 107.859375 17.113281 97.0625 17.113281 C 86.265625 17.113281 75.796875 19.226562 65.945312 23.394531 C 56.425781 27.417969 47.875 33.183594 40.53125 40.53125 C 33.183594 47.878906 27.417969 56.429688 23.394531 65.949219 C 19.226562 75.796875 17.113281 86.265625 17.113281 97.0625 C 17.113281 107.863281 19.226562 118.332031 23.394531 128.179688 C 27.417969 137.699219 33.183594 146.25 40.53125 153.597656 C 47.878906 160.941406 56.429688 166.707031 65.949219 170.734375 C 75.796875 174.898438 86.265625 177.011719 97.066406 177.011719 C 107.863281 177.011719 118.332031 174.898438 128.179688 170.734375 C 137.699219 166.707031 146.25 160.941406 153.597656 153.597656 C 160.941406 146.25 166.710938 137.699219 170.734375 128.179688 C 174.902344 118.332031 177.011719 107.859375 177.011719 97.0625 C 177.011719 86.265625 174.902344 75.796875 170.734375 65.949219 Z M 164.507812 97.0625 C 164.507812 134.3125 134.3125 164.507812 97.0625 164.507812 C 59.8125 164.507812 29.617188 134.3125 29.617188 97.0625 C 29.617188 59.8125 59.8125 29.617188 97.0625 29.617188 C 134.3125 29.617188 164.507812 59.8125 164.507812 97.0625 Z M 149.394531 74.960938 C 146.53125 68.195312 142.433594 62.121094 137.21875 56.90625 C 132.007812 51.695312 125.929688 47.59375 119.167969 44.734375 C 112.183594 41.777344 104.742188 40.273438 97.0625 40.273438 C 89.382812 40.273438 81.945312 41.777344 74.960938 44.734375 C 68.195312 47.59375 62.121094 51.695312 56.90625 56.90625 C 51.695312 62.121094 47.59375 68.195312 44.730469 74.960938 C 41.777344 81.945312 40.269531 89.382812 40.269531 97.0625 C 40.269531 104.742188 41.777344 112.183594 44.730469 119.167969 C 47.59375 125.929688 51.691406 132.007812 56.90625 137.21875 C 62.121094 142.433594 68.195312 146.53125 74.960938 149.394531 C 81.945312 152.347656 89.382812 153.855469 97.0625 153.855469 C 104.742188 153.855469 112.183594 152.347656 119.167969 149.394531 C 125.929688 146.53125 132.007812 142.433594 137.21875 137.21875 C 142.433594 132.007812 146.53125 125.929688 149.394531 119.167969 C 152.351562 112.183594 153.855469 104.742188 153.855469 97.0625 C 153.855469 89.382812 152.351562 81.945312 149.394531 74.960938 Z M 141.351562 97.0625 C 141.351562 121.523438 121.523438 141.351562 97.0625 141.351562 C 72.601562 141.351562 52.773438 121.523438 52.773438 97.0625 C 52.773438 72.601562 72.601562 52.773438 97.0625 52.773438 C 121.523438 52.773438 141.351562 72.601562 141.351562 97.0625 Z M 130.699219 97.0625 C 130.699219 92.5 129.796875 88.089844 128.054688 83.972656 C 126.359375 79.964844 123.925781 76.363281 120.84375 73.28125 C 117.765625 70.203125 114.160156 67.769531 110.152344 66.070312 C 106.035156 64.328125 101.625 63.429688 97.0625 63.429688 C 92.5 63.429688 88.089844 64.328125 83.972656 66.070312 C 79.964844 67.769531 76.363281 70.203125 73.28125 73.28125 C 70.203125 76.363281 67.769531 79.964844 66.070312 83.972656 C 64.328125 88.09375 63.429688 92.5 63.429688 97.0625 C 63.429688 101.625 64.328125 106.035156 66.070312 110.152344 C 67.769531 114.160156 70.203125 117.765625 73.28125 120.84375 C 76.363281 123.925781 79.964844 126.359375 83.972656 128.054688 C 88.09375 129.796875 92.5 130.699219 97.0625 130.699219 C 101.625 130.699219 106.035156 129.796875 110.152344 128.054688 C 114.160156 126.359375 117.765625 123.925781 120.84375 120.84375 C 123.925781 117.765625 126.359375 114.160156 128.054688 110.152344 C 129.796875 106.035156 130.699219 101.628906 130.699219 97.0625 Z M 118.195312 97.0625 C 118.195312 108.734375 108.734375 118.195312 97.0625 118.195312 C 85.394531 118.195312 75.929688 108.734375 75.929688 97.0625 C 75.929688 85.390625 85.394531 75.929688 97.0625 75.929688 C 108.734375 75.929688 118.195312 85.394531 118.195312 97.0625 Z M 107.542969 97.0625 C 107.542969 91.285156 102.839844 86.585938 97.0625 86.585938 C 91.285156 86.585938 86.585938 91.285156 86.585938 97.0625 C 86.585938 102.839844 91.285156 107.542969 97.0625 107.542969 C 102.839844 107.542969 107.542969 102.839844 107.542969 97.0625 Z M 97.066406 278.269531 C 97.0625 228.230469 56.5 187.667969 6.460938 187.667969 L 6.460938 368.875 C 56.5 368.875 97.0625 328.3125 97.066406 278.273438 C 97.066406 328.3125 137.628906 368.875 187.667969 368.875 L 187.667969 187.667969 C 137.628906 187.667969 97.066406 228.230469 97.066406 278.269531 Z M 368.875 278.273438 C 368.875 328.308594 328.3125 368.875 278.273438 368.875 C 228.234375 368.875 187.667969 328.308594 187.667969 278.273438 C 187.667969 228.234375 228.234375 187.667969 278.273438 187.667969 C 328.3125 187.667969 368.875 228.234375 368.875 278.273438 Z M 351.941406 247.15625 C 347.917969 237.636719 342.152344 229.085938 334.804688 221.738281 C 327.460938 214.394531 318.90625 208.628906 309.390625 204.601562 C 299.539062 200.433594 289.070312 198.324219 278.273438 198.324219 C 267.472656 198.324219 257.003906 200.433594 247.15625 204.601562 C 237.636719 208.628906 229.085938 214.394531 221.738281 221.738281 C 214.394531 229.085938 208.628906 237.636719 204.601562 247.15625 C 200.433594 257.003906 198.324219 267.476562 198.324219 278.273438 C 198.324219 289.070312 200.433594 299.539062 204.601562 309.386719 C 208.628906 318.90625 214.394531 327.457031 221.738281 334.804688 C 229.085938 342.148438 237.636719 347.914062 247.15625 351.941406 C 257.003906 356.109375 267.476562 358.21875 278.273438 358.21875 C 289.070312 358.21875 299.539062 356.109375 309.390625 351.941406 C 318.90625 347.917969 327.460938 342.148438 334.804688 334.804688 C 342.152344 327.457031 347.917969 318.90625 351.945312 309.386719 C 356.109375 299.539062 358.222656 289.070312 358.222656 278.273438 C 358.222656 267.476562 356.109375 257.003906 351.941406 247.15625 Z M 345.71875 278.273438 C 345.71875 315.519531 315.523438 345.71875 278.273438 345.71875 C 241.023438 345.71875 210.828125 315.519531 210.828125 278.273438 C 210.828125 241.023438 241.023438 210.824219 278.273438 210.824219 C 315.523438 210.824219 345.71875 241.023438 345.71875 278.273438 Z M 330.605469 256.167969 C 327.742188 249.40625 323.644531 243.328125 318.429688 238.117188 C 313.214844 232.902344 307.140625 228.800781 300.375 225.941406 C 293.390625 222.988281 285.953125 221.480469 278.273438 221.480469 C 270.59375 221.480469 263.152344 222.988281 256.167969 225.941406 C 249.40625 228.804688 243.328125 232.902344 238.117188 238.117188 C 232.902344 243.328125 228.800781 249.40625 225.941406 256.167969 C 222.984375 263.152344 221.480469 270.59375 221.480469 278.273438 C 221.480469 285.953125 222.988281 293.390625 225.941406 300.375 C 228.800781 307.136719 232.902344 313.214844 238.117188 318.429688 C 243.328125 323.640625 249.40625 327.742188 256.167969 330.601562 C 263.152344 333.554688 270.59375 335.0625 278.273438 335.0625 C 285.953125 335.0625 293.390625 333.554688 300.375 330.601562 C 307.140625 327.742188 313.214844 323.640625 318.429688 318.429688 C 323.640625 313.214844 327.742188 307.136719 330.605469 300.375 C 333.558594 293.390625 335.066406 285.953125 335.066406 278.273438 C 335.066406 270.59375 333.558594 263.152344 330.605469 256.167969 Z M 322.5625 278.273438 C 322.5625 302.730469 302.734375 322.5625 278.273438 322.5625 C 253.8125 322.5625 233.984375 302.730469 233.984375 278.273438 C 233.984375 253.8125 253.8125 233.980469 278.273438 233.980469 C 302.734375 233.984375 322.5625 253.8125 322.5625 278.273438 Z M 311.90625 278.273438 C 311.90625 273.710938 311.007812 269.300781 309.265625 265.179688 C 307.566406 261.175781 305.136719 257.570312 302.054688 254.492188 C 298.972656 251.410156 295.371094 248.976562 291.363281 247.28125 C 287.242188 245.535156 282.835938 244.636719 278.273438 244.636719 C 273.710938 244.636719 269.300781 245.535156 265.183594 247.28125 C 261.175781 248.976562 257.574219 251.410156 254.492188 254.492188 C 251.410156 257.570312 248.976562 261.175781 247.28125 265.179688 C 245.539062 269.300781 244.636719 273.710938 244.636719 278.273438 C 244.636719 282.835938 245.539062 287.242188 247.28125 291.363281 C 248.976562 295.371094 251.410156 298.972656 254.492188 302.054688 C 257.574219 305.132812 261.175781 307.566406 265.183594 309.261719 C 269.300781 311.007812 273.710938 311.90625 278.273438 311.90625 C 282.835938 311.90625 287.246094 311.007812 291.363281 309.261719 C 295.371094 307.566406 298.972656 305.132812 302.054688 302.054688 C 305.136719 298.972656 307.566406 295.371094 309.265625 291.363281 C 311.007812 287.242188 311.90625 282.835938 311.90625 278.273438 Z M 299.40625 278.273438 C 299.40625 289.941406 289.941406 299.402344 278.273438 299.402344 C 266.601562 299.402344 257.140625 289.941406 257.140625 278.273438 C 257.140625 266.601562 266.601562 257.140625 278.273438 257.140625 C 289.941406 257.140625 299.40625 266.601562 299.40625 278.273438 Z M 288.75 278.273438 C 288.75 272.496094 284.050781 267.792969 278.273438 267.792969 C 272.492188 267.792969 267.792969 272.496094 267.792969 278.273438 C 267.792969 284.050781 272.496094 288.75 278.273438 288.75 C 284.050781 288.75 288.75 284.050781 288.75 278.273438 Z M 288.75 278.273438 "/></g></g></svg>