<?xml version="1.0" encoding="UTF-8"?><svg xmlns="http://www.w3.org/2000/svg" xmlns:xlink="http://www.w3.org/1999/xlink" contentScriptType="text/ecmascript" width="375pt" zoomAndPan="magnify" contentStyleType="text/css" viewBox="0 0 375 374.999991" height="374.999991pt" preserveAspectRatio="xMidYMid meet" version="1.2"><defs><g/><clipPath xml:id="clip1" id="clip1"><path d="M 64.59375 14.035156 L 310.59375 14.035156 L 310.59375 260.035156 L 64.59375 260.035156 Z M 64.59375 14.035156 "/></clipPath></defs><g xml:id="surface1" id="surface1"><g clip-rule="nonzero" clip-path="url(#clip1)"><path style=" stroke:none;fill-rule:nonzero;fill:rgb(0%,0%,0%);fill-opacity:1;" d="M 310.773438 14.035156 L 310.773438 137.125 C 276.785156 137.125 249.230469 109.570312 249.230469 75.582031 C 249.230469 109.570312 221.671875 137.125 187.683594 137.125 L 187.683594 14.035156 C 221.671875 14.035156 249.226562 41.585938 249.230469 75.578125 C 249.230469 41.585938 276.785156 14.035156 310.773438 14.035156 Z M 187.683594 75.578125 C 187.683594 109.570312 160.128906 137.125 126.136719 137.125 C 92.148438 137.125 64.59375 109.570312 64.59375 75.578125 C 64.59375 41.589844 92.148438 14.035156 126.136719 14.035156 C 160.128906 14.035156 187.683594 41.589844 187.683594 75.578125 Z M 176.179688 54.441406 C 173.445312 47.976562 169.53125 42.167969 164.539062 37.175781 C 159.550781 32.1875 153.742188 28.269531 147.273438 25.535156 C 140.585938 22.707031 133.472656 21.269531 126.136719 21.269531 C 118.804688 21.269531 111.691406 22.707031 105 25.535156 C 98.535156 28.269531 92.726562 32.1875 87.738281 37.175781 C 82.746094 42.167969 78.832031 47.976562 76.097656 54.441406 C 73.265625 61.132812 71.832031 68.246094 71.832031 75.578125 C 71.832031 82.914062 73.265625 90.023438 76.097656 96.714844 C 78.832031 103.179688 82.746094 108.988281 87.738281 113.980469 C 92.726562 118.96875 98.535156 122.886719 105 125.621094 C 111.691406 128.449219 118.804688 129.886719 126.140625 129.886719 C 133.472656 129.886719 140.585938 128.449219 147.277344 125.621094 C 153.742188 122.886719 159.550781 118.96875 164.539062 113.980469 C 169.53125 108.988281 173.445312 103.179688 176.183594 96.714844 C 179.011719 90.023438 180.445312 82.914062 180.445312 75.578125 C 180.445312 68.246094 179.011719 61.132812 176.179688 54.441406 Z M 171.953125 75.578125 C 171.953125 100.882812 151.441406 121.394531 126.136719 121.394531 C 100.835938 121.394531 80.324219 100.882812 80.324219 75.578125 C 80.324219 50.277344 100.835938 29.765625 126.136719 29.765625 C 151.441406 29.765625 171.953125 50.277344 171.953125 75.578125 Z M 161.6875 60.5625 C 159.742188 55.96875 156.957031 51.84375 153.414062 48.300781 C 149.875 44.761719 145.746094 41.976562 141.152344 40.03125 C 136.410156 38.023438 131.355469 37 126.136719 37 C 120.921875 37 115.867188 38.023438 111.125 40.03125 C 106.53125 41.976562 102.402344 44.761719 98.859375 48.300781 C 95.320312 51.84375 92.535156 55.96875 90.589844 60.5625 C 88.582031 65.308594 87.558594 70.363281 87.558594 75.578125 C 87.558594 80.796875 88.582031 85.847656 90.589844 90.59375 C 92.535156 95.1875 95.320312 99.316406 98.859375 102.855469 C 102.402344 106.398438 106.53125 109.183594 111.125 111.125 C 115.867188 113.132812 120.921875 114.15625 126.136719 114.15625 C 131.355469 114.15625 136.410156 113.132812 141.152344 111.125 C 145.746094 109.179688 149.875 106.398438 153.414062 102.855469 C 156.957031 99.316406 159.742188 95.1875 161.6875 90.59375 C 163.691406 85.847656 164.714844 80.796875 164.714844 75.578125 C 164.714844 70.363281 163.691406 65.308594 161.6875 60.5625 Z M 156.222656 75.578125 C 156.222656 92.195312 142.753906 105.664062 126.136719 105.664062 C 109.523438 105.664062 96.054688 92.195312 96.054688 75.578125 C 96.054688 58.964844 109.523438 45.492188 126.136719 45.492188 C 142.753906 45.496094 156.222656 58.964844 156.222656 75.578125 Z M 148.984375 75.578125 C 148.984375 72.480469 148.375 69.484375 147.191406 66.6875 C 146.039062 63.964844 144.386719 61.515625 142.292969 59.425781 C 140.199219 57.332031 137.753906 55.679688 135.03125 54.527344 C 132.230469 53.34375 129.238281 52.730469 126.136719 52.730469 C 123.039062 52.730469 120.042969 53.34375 117.246094 54.527344 C 114.523438 55.679688 112.078125 57.332031 109.984375 59.425781 C 107.890625 61.515625 106.238281 63.964844 105.085938 66.6875 C 103.902344 69.484375 103.289062 72.480469 103.289062 75.578125 C 103.289062 78.679688 103.902344 81.671875 105.085938 84.472656 C 106.238281 87.191406 107.890625 89.640625 109.984375 91.734375 C 112.078125 93.824219 114.523438 95.476562 117.246094 96.628906 C 120.042969 97.816406 123.039062 98.425781 126.136719 98.425781 C 129.238281 98.425781 132.230469 97.816406 135.03125 96.628906 C 137.753906 95.476562 140.199219 93.824219 142.292969 91.734375 C 144.386719 89.640625 146.039062 87.191406 147.191406 84.472656 C 148.375 81.671875 148.984375 78.679688 148.984375 75.578125 Z M 140.492188 75.578125 C 140.492188 83.507812 134.066406 89.933594 126.136719 89.933594 C 118.210938 89.933594 111.785156 83.507812 111.785156 75.578125 C 111.785156 67.652344 118.210938 61.222656 126.136719 61.222656 C 134.066406 61.222656 140.492188 67.652344 140.492188 75.578125 Z M 133.253906 75.578125 C 133.253906 71.652344 130.0625 68.460938 126.136719 68.460938 C 122.214844 68.460938 119.019531 71.652344 119.019531 75.578125 C 119.019531 79.503906 122.214844 82.695312 126.136719 82.695312 C 130.0625 82.695312 133.253906 79.503906 133.253906 75.578125 Z M 126.140625 198.667969 C 126.136719 164.679688 98.582031 137.125 64.59375 137.125 L 64.59375 260.214844 C 98.582031 260.214844 126.136719 232.660156 126.140625 198.671875 C 126.140625 232.660156 153.695312 260.214844 187.683594 260.214844 L 187.683594 137.125 C 153.695312 137.125 126.140625 164.679688 126.140625 198.667969 Z M 310.773438 198.667969 C 310.773438 232.660156 283.21875 260.214844 249.230469 260.214844 C 215.238281 260.214844 187.683594 232.660156 187.683594 198.667969 C 187.683594 164.679688 215.238281 137.125 249.230469 137.125 C 283.21875 137.125 310.773438 164.679688 310.773438 198.667969 Z M 299.273438 177.53125 C 296.539062 171.066406 292.621094 165.257812 287.632812 160.269531 C 282.640625 155.277344 276.832031 151.363281 270.367188 148.625 C 263.675781 145.796875 256.5625 144.363281 249.230469 144.363281 C 241.894531 144.363281 234.78125 145.796875 228.09375 148.625 C 221.625 151.359375 215.816406 155.277344 210.828125 160.269531 C 205.839844 165.257812 201.921875 171.066406 199.1875 177.53125 C 196.355469 184.222656 194.921875 191.335938 194.921875 198.667969 C 194.921875 206.003906 196.355469 213.117188 199.1875 219.804688 C 201.921875 226.273438 205.839844 232.082031 210.828125 237.070312 C 215.816406 242.058594 221.625 245.976562 228.09375 248.710938 C 234.78125 251.542969 241.894531 252.976562 249.230469 252.976562 C 256.5625 252.976562 263.675781 251.542969 270.367188 248.710938 C 276.832031 245.976562 282.640625 242.058594 287.632812 237.070312 C 292.621094 232.082031 296.539062 226.273438 299.273438 219.804688 C 302.101562 213.117188 303.535156 206.003906 303.535156 198.667969 C 303.539062 191.335938 302.101562 184.222656 299.273438 177.53125 Z M 295.042969 198.667969 C 295.042969 223.972656 274.53125 244.484375 249.230469 244.484375 C 223.925781 244.484375 203.414062 223.972656 203.414062 198.667969 C 203.414062 173.367188 223.925781 152.855469 249.230469 152.855469 C 274.53125 152.855469 295.042969 173.367188 295.042969 198.667969 Z M 284.777344 183.65625 C 282.832031 179.0625 280.046875 174.933594 276.507812 171.390625 C 272.964844 167.851562 268.839844 165.066406 264.242188 163.121094 C 259.5 161.117188 254.445312 160.09375 249.230469 160.09375 C 244.011719 160.09375 238.960938 161.117188 234.214844 163.121094 C 229.621094 165.066406 225.492188 167.851562 221.953125 171.390625 C 218.410156 174.933594 215.625 179.0625 213.683594 183.65625 C 211.675781 188.398438 210.652344 193.453125 210.652344 198.667969 C 210.652344 203.886719 211.675781 208.9375 213.683594 213.683594 C 215.625 218.277344 218.410156 222.40625 221.953125 225.945312 C 225.492188 229.488281 229.621094 232.273438 234.214844 234.214844 C 238.960938 236.222656 244.011719 237.246094 249.230469 237.246094 C 254.445312 237.246094 259.5 236.222656 264.242188 234.214844 C 268.839844 232.273438 272.964844 229.488281 276.507812 225.945312 C 280.046875 222.40625 282.832031 218.277344 284.777344 213.683594 C 286.785156 208.9375 287.808594 203.886719 287.808594 198.667969 C 287.808594 193.453125 286.785156 188.398438 284.777344 183.65625 Z M 279.316406 198.667969 C 279.316406 215.285156 265.84375 228.753906 249.230469 228.753906 C 232.613281 228.753906 219.144531 215.285156 219.144531 198.667969 C 219.144531 182.054688 232.613281 168.585938 249.230469 168.585938 C 265.84375 168.585938 279.316406 182.054688 279.316406 198.667969 Z M 272.078125 198.667969 C 272.078125 195.570312 271.464844 192.574219 270.28125 189.777344 C 269.128906 187.054688 267.476562 184.609375 265.382812 182.515625 C 263.292969 180.421875 260.84375 178.769531 258.121094 177.617188 C 255.324219 176.433594 252.328125 175.820312 249.230469 175.820312 C 246.128906 175.820312 243.136719 176.433594 240.335938 177.617188 C 237.617188 178.769531 235.167969 180.421875 233.074219 182.515625 C 230.984375 184.609375 229.332031 187.054688 228.179688 189.777344 C 226.992188 192.574219 226.382812 195.570312 226.382812 198.667969 C 226.382812 201.769531 226.992188 204.765625 228.179688 207.5625 C 229.332031 210.285156 230.984375 212.730469 233.074219 214.824219 C 235.167969 216.917969 237.617188 218.570312 240.335938 219.722656 C 243.136719 220.90625 246.128906 221.515625 249.230469 221.515625 C 252.328125 221.515625 255.324219 220.90625 258.121094 219.722656 C 260.84375 218.570312 263.292969 216.917969 265.382812 214.824219 C 267.476562 212.730469 269.128906 210.285156 270.28125 207.5625 C 271.464844 204.765625 272.078125 201.769531 272.078125 198.667969 Z M 263.585938 198.667969 C 263.585938 206.597656 257.15625 213.023438 249.230469 213.023438 C 241.300781 213.023438 234.875 206.597656 234.875 198.667969 C 234.875 190.742188 241.300781 184.316406 249.230469 184.316406 C 257.15625 184.316406 263.585938 190.742188 263.585938 198.667969 Z M 256.347656 198.667969 C 256.347656 194.746094 253.152344 191.550781 249.230469 191.550781 C 245.304688 191.550781 242.113281 194.746094 242.113281 198.667969 C 242.113281 202.59375 245.304688 205.785156 249.230469 205.785156 C 253.152344 205.785156 256.347656 202.59375 256.347656 198.667969 Z M 256.347656 198.667969 "/></g><g style="fill:rgb(0%,0%,0%);fill-opacity:1;"><g transform="translate(25.700641, 316.048084)"><path style="stroke:none;" d="M 0.453125 -2.0625 L 4.953125 -2.0625 L 17.328125 -18.65625 L 4.265625 -38.421875 L 0.390625 -38.421875 L 0.390625 -40.5 L 17.203125 -40.5 L 17.203125 -38.421875 L 12.3125 -38.421875 L 22 -23.984375 L 32.640625 -38.421875 L 28.15625 -38.421875 L 28.15625 -40.515625 L 40.0625 -40.515625 L 40.0625 -38.421875 L 35.546875 -38.421875 L 23.375 -21.921875 L 36.703125 -2.0625 L 40.3125 -2.0625 L 40.3125 0 L 23.53125 0 L 23.53125 -2.0625 L 28.34375 -2.0625 L 18.71875 -16.5625 L 7.96875 -2.0625 L 12.8125 -2.0625 L 12.8125 0 L 0.453125 0 Z M 0.453125 -2.0625 "/></g></g><g style="fill:rgb(0%,0%,0%);fill-opacity:1;"><g transform="translate(96.482964, 316.048084)"><path style="stroke:none;" d="M 34.59375 -37.640625 C 35.300781 -38.460938 35.671875 -39.414062 35.703125 -40.5 L 37.875 -40.5 L 37.875 -29.40625 L 35.625 -29.40625 C 35.113281 -32.332031 33.710938 -34.632812 31.421875 -36.3125 C 29.140625 -37.988281 26.660156 -38.828125 23.984375 -38.828125 C 15.054688 -38.828125 10.625 -32.585938 10.6875 -20.109375 C 10.738281 -15.148438 11.726562 -11.03125 13.65625 -7.75 C 15.875 -3.957031 19.101562 -2.0625 23.34375 -2.0625 C 26.570312 -2.0625 29.300781 -2.628906 31.53125 -3.765625 C 33.757812 -4.910156 35.507812 -6.453125 36.78125 -8.390625 L 38.171875 -7.125 C 37.492188 -5.519531 36.097656 -3.984375 33.984375 -2.515625 C 31.066406 -0.484375 27.414062 0.53125 23.03125 0.53125 C 16.78125 0.53125 11.800781 -1.410156 8.09375 -5.296875 C 4.394531 -9.191406 2.546875 -14.144531 2.546875 -20.15625 C 2.546875 -26.175781 4.390625 -31.15625 8.078125 -35.09375 C 11.773438 -39.039062 16.914062 -41.015625 23.5 -41.015625 C 27.0625 -41.015625 30.164062 -40.296875 32.8125 -38.859375 C 33.5625 -38.453125 34.15625 -38.046875 34.59375 -37.640625 Z M 34.59375 -37.640625 "/></g></g><g style="fill:rgb(0%,0%,0%);fill-opacity:1;"><g transform="translate(167.159441, 316.048084)"><path style="stroke:none;" d="M 1.453125 -2.0625 L 5.578125 -2.0625 L 5.609375 -38.421875 L 1.453125 -38.421875 L 1.453125 -40.5 L 17.203125 -40.5 L 17.203125 -38.421875 L 12.734375 -38.421875 L 12.734375 -21.328125 L 32.421875 -21.328125 L 32.453125 -38.421875 L 27.96875 -38.421875 L 27.96875 -40.5 L 43.71875 -40.5 L 43.71875 -38.421875 L 39.5625 -38.421875 L 39.5625 -2.0625 L 43.703125 -2.0625 L 43.703125 0 L 27.96875 0 L 27.96875 -2.0625 L 32.421875 -2.0625 L 32.421875 -19.265625 L 12.734375 -19.265625 L 12.734375 -2.0625 L 17.171875 -2.0625 L 17.171875 0 L 1.453125 0 Z M 1.453125 -2.0625 "/></g></g><g style="fill:rgb(0%,0%,0%);fill-opacity:1;"><g transform="translate(242.413758, 316.048084)"><path style="stroke:none;" d="M 1.875 -2.09375 L 7.171875 -2.09375 L 7.203125 -38.421875 L 1.875 -38.421875 L 1.875 -40.5 L 36.09375 -40.5 L 36.09375 -28.953125 L 34.03125 -28.953125 C 33.945312 -30.421875 33.820312 -31.722656 33.65625 -32.859375 C 33.5 -33.992188 33.164062 -34.957031 32.65625 -35.75 C 31.632812 -37.375 29.550781 -38.265625 26.40625 -38.421875 L 14.3125 -38.421875 L 14.3125 -21.8125 L 20.9375 -21.8125 C 22.4375 -21.8125 23.585938 -22.050781 24.390625 -22.53125 C 25.191406 -23.019531 25.679688 -23.875 25.859375 -25.09375 C 25.890625 -25.445312 25.914062 -25.820312 25.9375 -26.21875 C 25.96875 -26.613281 26.003906 -27.003906 26.046875 -27.390625 L 28.265625 -27.390625 L 28.265625 -13.734375 L 26.046875 -13.734375 C 26.003906 -14.140625 25.96875 -14.609375 25.9375 -15.140625 C 25.914062 -15.671875 25.890625 -16.113281 25.859375 -16.46875 C 25.679688 -17.675781 25.179688 -18.523438 24.359375 -19.015625 C 23.535156 -19.503906 22.394531 -19.75 20.9375 -19.75 L 14.3125 -19.75 L 14.3125 -2.0625 L 25.640625 -2.0625 C 30.285156 -2.0625 33.101562 -4.207031 34.09375 -8.5 C 34.375 -9.726562 34.554688 -11 34.640625 -12.3125 L 36.703125 -12.3125 L 36.703125 0 L 1.875 0 Z M 1.875 -2.09375 "/></g></g><g style="fill:rgb(0%,0%,0%);fill-opacity:1;"><g transform="translate(313.116683, 316.048084)"><path style="stroke:none;" d="M 1.875 -2.09375 L 7.546875 -2.0625 L 7.5625 -38.453125 L 3.125 -38.453125 L 3.125 -40.5 L 19.40625 -40.5 L 19.40625 -38.453125 L 14.6875 -38.453125 L 14.6875 -2.0625 L 22.78125 -2.0625 C 27.425781 -2.0625 30.242188 -4.207031 31.234375 -8.5 C 31.515625 -9.726562 31.695312 -11 31.78125 -12.3125 L 33.84375 -12.3125 L 33.84375 0 L 1.875 0 Z M 1.875 -2.09375 "/></g></g><g style="fill:rgb(0%,0%,0%);fill-opacity:1;"><g transform="translate(102.24822, 357.005151)"><path style="stroke:none;" d="M 0.90625 0.03125 C 0.707031 0.03125 0.609375 -0.046875 0.609375 -0.203125 C 0.609375 -0.328125 0.75 -0.394531 1.03125 -0.40625 C 1.132812 -0.414062 1.253906 -0.492188 1.390625 -0.640625 C 1.523438 -0.785156 1.617188 -0.984375 1.671875 -1.234375 C 1.734375 -1.484375 1.796875 -2.332031 1.859375 -3.78125 C 1.929688 -5.238281 1.96875 -6.378906 1.96875 -7.203125 C 1.96875 -8.035156 1.875 -8.628906 1.6875 -8.984375 C 1.5 -9.347656 1.09375 -9.601562 0.46875 -9.75 C 0.34375 -9.78125 0.28125 -9.851562 0.28125 -9.96875 C 0.28125 -10.113281 0.367188 -10.1875 0.546875 -10.1875 L 1.3125 -10.125 L 2.375 -10.15625 C 2.5625 -10.15625 2.675781 -10.085938 2.71875 -9.953125 C 2.832031 -9.703125 3.035156 -9.253906 3.328125 -8.609375 C 3.628906 -7.960938 3.867188 -7.445312 4.046875 -7.0625 C 4.222656 -6.6875 4.453125 -6.203125 4.734375 -5.609375 C 5.015625 -5.015625 5.238281 -4.53125 5.40625 -4.15625 C 5.582031 -3.789062 5.757812 -3.421875 5.9375 -3.046875 C 6.125 -2.679688 6.269531 -2.410156 6.375 -2.234375 C 6.476562 -2.054688 6.539062 -1.96875 6.5625 -1.96875 C 6.59375 -1.96875 6.625 -1.984375 6.65625 -2.015625 C 6.695312 -2.046875 6.734375 -2.085938 6.765625 -2.140625 C 6.796875 -2.203125 6.820312 -2.257812 6.84375 -2.3125 C 6.875 -2.375 6.910156 -2.453125 6.953125 -2.546875 C 6.992188 -2.640625 7.023438 -2.707031 7.046875 -2.75 L 8.890625 -6.5625 C 9.398438 -7.601562 9.738281 -8.328125 9.90625 -8.734375 L 10.234375 -9.453125 C 10.265625 -9.523438 10.285156 -9.582031 10.296875 -9.625 C 10.316406 -9.675781 10.332031 -9.710938 10.34375 -9.734375 C 10.351562 -9.753906 10.363281 -9.773438 10.375 -9.796875 C 10.382812 -9.816406 10.398438 -9.859375 10.421875 -9.921875 C 10.441406 -9.992188 10.46875 -10.039062 10.5 -10.0625 C 10.570312 -10.144531 10.710938 -10.1875 10.921875 -10.1875 L 12.15625 -10.15625 C 12.3125 -10.15625 12.390625 -10.09375 12.390625 -9.96875 C 12.390625 -9.875 12.359375 -9.804688 12.296875 -9.765625 C 12.234375 -9.722656 12.09375 -9.6875 11.875 -9.65625 C 11.664062 -9.625 11.515625 -9.503906 11.421875 -9.296875 C 11.328125 -9.085938 11.28125 -8.507812 11.28125 -7.5625 C 11.28125 -6.625 11.304688 -5.628906 11.359375 -4.578125 C 11.421875 -3.535156 11.453125 -2.878906 11.453125 -2.609375 C 11.453125 -1.648438 11.523438 -1.039062 11.671875 -0.78125 C 11.828125 -0.519531 12.148438 -0.390625 12.640625 -0.390625 C 12.703125 -0.390625 12.757812 -0.363281 12.8125 -0.3125 C 12.863281 -0.269531 12.890625 -0.226562 12.890625 -0.1875 C 12.890625 -0.03125 12.835938 0.046875 12.734375 0.046875 L 12.578125 0.046875 L 11.109375 -0.015625 C 11.109375 -0.015625 10.613281 0.0078125 9.625 0.0625 C 9.445312 0.0625 9.359375 -0.00390625 9.359375 -0.140625 C 9.359375 -0.285156 9.488281 -0.375 9.75 -0.40625 C 9.84375 -0.414062 9.945312 -0.472656 10.0625 -0.578125 C 10.175781 -0.691406 10.253906 -0.847656 10.296875 -1.046875 C 10.335938 -1.253906 10.359375 -1.539062 10.359375 -1.90625 C 10.359375 -2.269531 10.347656 -2.664062 10.328125 -3.09375 C 10.316406 -3.53125 10.300781 -3.953125 10.28125 -4.359375 C 10.257812 -4.765625 10.238281 -5.144531 10.21875 -5.5 C 10.207031 -5.851562 10.195312 -6.148438 10.1875 -6.390625 L 10.15625 -6.734375 C 10.15625 -7.140625 10.113281 -7.34375 10.03125 -7.34375 C 10 -7.34375 9.96875 -7.328125 9.9375 -7.296875 C 9.914062 -7.273438 9.894531 -7.253906 9.875 -7.234375 C 9.863281 -7.210938 9.847656 -7.179688 9.828125 -7.140625 C 9.804688 -7.097656 9.785156 -7.0625 9.765625 -7.03125 C 9.742188 -7 9.71875 -6.957031 9.6875 -6.90625 C 9.664062 -6.851562 9.644531 -6.804688 9.625 -6.765625 L 9.546875 -6.609375 C 9.515625 -6.546875 9.488281 -6.488281 9.46875 -6.4375 L 7.46875 -2.40625 C 7.238281 -1.9375 7.015625 -1.476562 6.796875 -1.03125 C 6.585938 -0.582031 6.460938 -0.328125 6.421875 -0.265625 C 6.390625 -0.203125 6.335938 -0.171875 6.265625 -0.171875 C 6.191406 -0.171875 6.125 -0.210938 6.0625 -0.296875 C 6.007812 -0.378906 5.925781 -0.554688 5.8125 -0.828125 C 5.695312 -1.109375 5.597656 -1.335938 5.515625 -1.515625 C 3.765625 -5.078125 2.867188 -6.882812 2.828125 -6.9375 C 2.785156 -6.988281 2.75 -7.015625 2.71875 -7.015625 C 2.644531 -7.015625 2.609375 -6.820312 2.609375 -6.4375 L 2.484375 -2.65625 L 2.484375 -2.015625 C 2.484375 -1.222656 2.640625 -0.738281 2.953125 -0.5625 C 3.117188 -0.46875 3.273438 -0.414062 3.421875 -0.40625 C 3.660156 -0.375 3.78125 -0.304688 3.78125 -0.203125 C 3.78125 -0.109375 3.765625 -0.0390625 3.734375 0 C 3.710938 0.03125 3.660156 0.046875 3.578125 0.046875 L 2.078125 -0.015625 Z M 0.90625 0.03125 "/></g></g><g style="fill:rgb(0%,0%,0%);fill-opacity:1;"><g transform="translate(117.865783, 357.005151)"><path style="stroke:none;" d="M 1.65625 -5.09375 L 1.703125 -7.578125 C 1.703125 -7.828125 1.691406 -8.257812 1.671875 -8.875 C 1.660156 -9.15625 1.539062 -9.367188 1.3125 -9.515625 C 1.082031 -9.671875 0.816406 -9.753906 0.515625 -9.765625 C 0.359375 -9.765625 0.28125 -9.851562 0.28125 -10.03125 C 0.28125 -10.164062 0.414062 -10.234375 0.6875 -10.234375 L 1.078125 -10.203125 L 4.578125 -10.125 L 7.4375 -10.1875 C 7.625 -10.1875 7.71875 -10.078125 7.71875 -9.859375 C 7.71875 -9.796875 7.6875 -9.601562 7.625 -9.28125 C 7.570312 -8.96875 7.546875 -8.71875 7.546875 -8.53125 C 7.546875 -8.226562 7.46875 -8.078125 7.3125 -8.078125 C 7.164062 -8.078125 7.09375 -8.191406 7.09375 -8.421875 C 7.09375 -8.648438 7.007812 -8.867188 6.84375 -9.078125 C 6.6875 -9.285156 6.488281 -9.394531 6.25 -9.40625 C 5.394531 -9.476562 4.738281 -9.515625 4.28125 -9.515625 L 3.90625 -9.515625 C 3.40625 -9.515625 3.117188 -9.476562 3.046875 -9.40625 C 2.898438 -9.28125 2.828125 -8.222656 2.828125 -6.234375 C 2.828125 -5.753906 2.914062 -5.515625 3.09375 -5.515625 L 4.5 -5.515625 C 5.070312 -5.515625 5.457031 -5.53125 5.65625 -5.5625 C 6.144531 -5.65625 6.425781 -5.90625 6.5 -6.3125 C 6.53125 -6.476562 6.59375 -6.5625 6.6875 -6.5625 C 6.78125 -6.5625 6.835938 -6.546875 6.859375 -6.515625 C 6.878906 -6.484375 6.890625 -6.421875 6.890625 -6.328125 L 6.765625 -4.8125 L 6.8125 -3.9375 C 6.8125 -3.695312 6.78125 -3.578125 6.71875 -3.578125 C 6.570312 -3.578125 6.460938 -3.695312 6.390625 -3.9375 C 6.265625 -4.332031 6.144531 -4.566406 6.03125 -4.640625 C 5.832031 -4.765625 5.484375 -4.828125 4.984375 -4.828125 L 3.953125 -4.828125 L 3.5 -4.84375 L 3.40625 -4.84375 C 3.007812 -4.84375 2.8125 -4.753906 2.8125 -4.578125 L 2.78125 -2.515625 L 2.78125 -1.9375 C 2.78125 -1.25 2.894531 -0.867188 3.125 -0.796875 C 3.363281 -0.722656 3.570312 -0.6875 3.75 -0.6875 C 5.175781 -0.6875 6.210938 -0.800781 6.859375 -1.03125 C 7.421875 -1.238281 7.765625 -1.457031 7.890625 -1.6875 C 8.003906 -1.925781 8.109375 -2.046875 8.203125 -2.046875 C 8.316406 -2.046875 8.375 -1.96875 8.375 -1.8125 C 8.375 -1.394531 8.164062 -0.972656 7.75 -0.546875 C 7.34375 -0.128906 6.988281 0.078125 6.6875 0.078125 C 6 0.078125 5.222656 0.0507812 4.359375 0 C 3.492188 -0.0507812 2.953125 -0.078125 2.734375 -0.078125 L 0.78125 0.0625 C 0.582031 0.0625 0.484375 0.0078125 0.484375 -0.09375 L 0.484375 -0.265625 C 0.484375 -0.316406 0.53125 -0.351562 0.625 -0.375 C 0.726562 -0.382812 0.890625 -0.441406 1.109375 -0.546875 C 1.335938 -0.648438 1.484375 -0.867188 1.546875 -1.203125 C 1.617188 -1.535156 1.65625 -2.238281 1.65625 -3.3125 Z M 1.65625 -5.09375 "/></g></g><g style="fill:rgb(0%,0%,0%);fill-opacity:1;"><g transform="translate(128.9663, 357.005151)"><path style="stroke:none;" d="M 1.921875 -0.046875 L 0.78125 0.015625 C 0.59375 0.015625 0.472656 -0.00390625 0.421875 -0.046875 C 0.378906 -0.0976562 0.359375 -0.160156 0.359375 -0.234375 C 0.359375 -0.316406 0.382812 -0.367188 0.4375 -0.390625 C 0.5 -0.421875 0.570312 -0.4375 0.65625 -0.4375 C 0.894531 -0.445312 1.097656 -0.515625 1.265625 -0.640625 C 1.429688 -0.773438 1.566406 -0.894531 1.671875 -1 C 1.785156 -1.101562 1.898438 -1.226562 2.015625 -1.375 C 2.140625 -1.53125 2.25 -1.664062 2.34375 -1.78125 C 2.445312 -1.894531 2.566406 -2.046875 2.703125 -2.234375 C 2.847656 -2.429688 2.957031 -2.582031 3.03125 -2.6875 C 3.101562 -2.789062 3.21875 -2.953125 3.375 -3.171875 C 3.53125 -3.398438 3.660156 -3.582031 3.765625 -3.71875 C 3.867188 -3.863281 4.019531 -4.066406 4.21875 -4.328125 C 4.414062 -4.585938 4.554688 -4.773438 4.640625 -4.890625 C 4.722656 -5.003906 4.765625 -5.078125 4.765625 -5.109375 C 4.765625 -5.140625 4.742188 -5.179688 4.703125 -5.234375 C 4.660156 -5.296875 4.585938 -5.398438 4.484375 -5.546875 C 4.378906 -5.703125 4.257812 -5.867188 4.125 -6.046875 C 3.601562 -6.773438 3.164062 -7.394531 2.8125 -7.90625 C 2.039062 -9.03125 1.390625 -9.648438 0.859375 -9.765625 C 0.648438 -9.765625 0.5 -9.796875 0.40625 -9.859375 C 0.320312 -9.929688 0.28125 -10 0.28125 -10.0625 C 0.28125 -10.132812 0.3125 -10.179688 0.375 -10.203125 C 0.445312 -10.222656 0.617188 -10.234375 0.890625 -10.234375 L 2.171875 -10.1875 L 3.671875 -10.21875 C 3.878906 -10.21875 3.984375 -10.171875 3.984375 -10.078125 C 3.984375 -9.992188 3.945312 -9.929688 3.875 -9.890625 C 3.8125 -9.859375 3.742188 -9.84375 3.671875 -9.84375 C 3.453125 -9.820312 3.34375 -9.71875 3.34375 -9.53125 C 3.34375 -9.34375 3.597656 -8.878906 4.109375 -8.140625 C 4.890625 -6.960938 5.316406 -6.332031 5.390625 -6.25 C 5.472656 -6.175781 5.523438 -6.140625 5.546875 -6.140625 C 5.628906 -6.140625 5.726562 -6.222656 5.84375 -6.390625 C 5.957031 -6.554688 6.109375 -6.773438 6.296875 -7.046875 C 6.484375 -7.316406 6.648438 -7.5625 6.796875 -7.78125 C 6.953125 -8 7.109375 -8.226562 7.265625 -8.46875 C 7.609375 -8.957031 7.78125 -9.269531 7.78125 -9.40625 C 7.78125 -9.550781 7.738281 -9.660156 7.65625 -9.734375 C 7.570312 -9.804688 7.488281 -9.847656 7.40625 -9.859375 C 7.144531 -9.878906 7.015625 -9.957031 7.015625 -10.09375 C 7.015625 -10.1875 7.085938 -10.234375 7.234375 -10.234375 L 8.390625 -10.1875 C 8.921875 -10.1875 9.269531 -10.191406 9.4375 -10.203125 C 9.613281 -10.222656 9.710938 -10.234375 9.734375 -10.234375 C 9.890625 -10.234375 9.96875 -10.1875 9.96875 -10.09375 C 9.96875 -10 9.921875 -9.9375 9.828125 -9.90625 C 9.742188 -9.875 9.609375 -9.820312 9.421875 -9.75 C 9.234375 -9.6875 9.050781 -9.59375 8.875 -9.46875 C 8.707031 -9.351562 8.460938 -9.078125 8.140625 -8.640625 C 6.648438 -6.648438 5.90625 -5.644531 5.90625 -5.625 C 5.90625 -5.550781 6.101562 -5.234375 6.5 -4.671875 C 6.894531 -4.109375 7.300781 -3.53125 7.71875 -2.9375 C 8.59375 -1.65625 9.210938 -0.867188 9.578125 -0.578125 C 9.609375 -0.546875 9.707031 -0.515625 9.875 -0.484375 C 10.28125 -0.410156 10.484375 -0.3125 10.484375 -0.1875 C 10.484375 -0.132812 10.476562 -0.101562 10.46875 -0.09375 C 10.425781 -0.0195312 10.28125 0.015625 10.03125 0.015625 L 8.484375 -0.09375 C 8.015625 -0.09375 7.660156 -0.078125 7.421875 -0.046875 C 7.191406 -0.015625 7.0625 0 7.03125 0 C 6.90625 0 6.84375 -0.0546875 6.84375 -0.171875 C 6.84375 -0.296875 6.960938 -0.382812 7.203125 -0.4375 C 7.453125 -0.5 7.578125 -0.617188 7.578125 -0.796875 C 7.578125 -0.984375 7.296875 -1.484375 6.734375 -2.296875 C 6.066406 -3.253906 5.640625 -3.875 5.453125 -4.15625 C 5.273438 -4.445312 5.15625 -4.59375 5.09375 -4.59375 C 5.070312 -4.59375 4.960938 -4.429688 4.765625 -4.109375 C 4.566406 -3.796875 4.269531 -3.375 3.875 -2.84375 C 3.476562 -2.3125 3.179688 -1.882812 2.984375 -1.5625 C 2.785156 -1.238281 2.6875 -0.976562 2.6875 -0.78125 C 2.6875 -0.53125 2.941406 -0.40625 3.453125 -0.40625 C 3.566406 -0.40625 3.625 -0.320312 3.625 -0.15625 C 3.625 -0.0507812 3.476562 0 3.1875 0 Z M 1.921875 -0.046875 "/></g></g><g style="fill:rgb(0%,0%,0%);fill-opacity:1;"><g transform="translate(142.174775, 357.005151)"><path style="stroke:none;" d="M 1.703125 -5.765625 L 1.71875 -7.3125 L 1.71875 -7.96875 C 1.71875 -8.394531 1.703125 -8.734375 1.671875 -8.984375 C 1.640625 -9.234375 1.507812 -9.421875 1.28125 -9.546875 C 1.0625 -9.671875 0.835938 -9.738281 0.609375 -9.75 C 0.390625 -9.757812 0.28125 -9.832031 0.28125 -9.96875 C 0.28125 -10.113281 0.414062 -10.1875 0.6875 -10.1875 L 2.3125 -10.125 L 3.578125 -10.15625 C 3.828125 -10.15625 3.953125 -10.085938 3.953125 -9.953125 C 3.953125 -9.878906 3.734375 -9.75 3.296875 -9.5625 C 2.992188 -9.4375 2.84375 -8.890625 2.84375 -7.921875 L 2.796875 -2.609375 C 2.796875 -1.804688 2.90625 -1.242188 3.125 -0.921875 C 3.351562 -0.597656 3.59375 -0.4375 3.84375 -0.4375 L 4.125 -0.421875 C 4.195312 -0.421875 4.265625 -0.398438 4.328125 -0.359375 C 4.398438 -0.328125 4.4375 -0.273438 4.4375 -0.203125 C 4.4375 -0.0664062 4.316406 0 4.078125 0 L 2.71875 -0.0625 L 1.140625 0.015625 C 0.703125 0.015625 0.484375 -0.0546875 0.484375 -0.203125 C 0.484375 -0.335938 0.632812 -0.421875 0.9375 -0.453125 C 1.050781 -0.460938 1.171875 -0.519531 1.296875 -0.625 C 1.421875 -0.738281 1.5 -0.863281 1.53125 -1 C 1.5625 -1.144531 1.597656 -1.726562 1.640625 -2.75 C 1.679688 -3.769531 1.703125 -4.503906 1.703125 -4.953125 Z M 1.703125 -5.765625 "/></g></g><g style="fill:rgb(0%,0%,0%);fill-opacity:1;"><g transform="translate(149.317503, 357.005151)"><path style="stroke:none;" d="M 0.625 -4.65625 C 0.625 -5.6875 0.828125 -6.617188 1.234375 -7.453125 C 1.640625 -8.285156 2.257812 -8.957031 3.09375 -9.46875 C 3.925781 -9.976562 4.914062 -10.234375 6.0625 -10.234375 C 6.644531 -10.234375 7.234375 -10.144531 7.828125 -9.96875 C 8.421875 -9.800781 8.894531 -9.632812 9.25 -9.46875 L 9.78125 -9.1875 C 9.8125 -9.1875 9.859375 -9.210938 9.921875 -9.265625 C 9.992188 -9.316406 10.050781 -9.34375 10.09375 -9.34375 C 10.132812 -9.34375 10.175781 -9.320312 10.21875 -9.28125 C 10.269531 -9.238281 10.296875 -9.128906 10.296875 -8.953125 C 10.304688 -8.773438 10.328125 -8.53125 10.359375 -8.21875 C 10.390625 -7.914062 10.421875 -7.660156 10.453125 -7.453125 C 10.484375 -7.253906 10.5 -7.132812 10.5 -7.09375 C 10.5 -6.925781 10.441406 -6.84375 10.328125 -6.84375 C 10.242188 -6.84375 10.160156 -6.910156 10.078125 -7.046875 C 9.148438 -8.785156 7.8125 -9.65625 6.0625 -9.65625 C 4.875 -9.65625 3.894531 -9.269531 3.125 -8.5 C 2.363281 -7.738281 1.984375 -6.742188 1.984375 -5.515625 C 1.984375 -4.128906 2.335938 -2.953125 3.046875 -1.984375 C 3.398438 -1.484375 3.894531 -1.085938 4.53125 -0.796875 C 5.164062 -0.515625 5.898438 -0.375 6.734375 -0.375 C 8.117188 -0.375 9.28125 -1.09375 10.21875 -2.53125 C 10.25 -2.59375 10.316406 -2.625 10.421875 -2.625 C 10.515625 -2.625 10.5625 -2.5625 10.5625 -2.4375 C 10.5625 -2.320312 10.539062 -2.175781 10.5 -2 C 10.46875 -1.820312 10.425781 -1.625 10.375 -1.40625 C 10.332031 -1.195312 10.304688 -1.066406 10.296875 -1.015625 C 10.273438 -0.910156 10.195312 -0.828125 10.0625 -0.765625 C 9.550781 -0.515625 9.148438 -0.328125 8.859375 -0.203125 C 8.097656 0.117188 7.285156 0.28125 6.421875 0.28125 C 5.554688 0.28125 4.785156 0.179688 4.109375 -0.015625 C 3.441406 -0.210938 2.894531 -0.472656 2.46875 -0.796875 C 2.050781 -1.128906 1.695312 -1.515625 1.40625 -1.953125 C 0.882812 -2.722656 0.625 -3.625 0.625 -4.65625 Z M 0.625 -4.65625 "/></g></g><g style="fill:rgb(0%,0%,0%);fill-opacity:1;"><g transform="translate(163.329009, 357.005151)"><path style="stroke:none;" d="M 1.9375 0 L 0.703125 0.0625 C 0.421875 0.0625 0.28125 0.00390625 0.28125 -0.109375 C 0.28125 -0.242188 0.351562 -0.335938 0.5 -0.390625 C 0.8125 -0.503906 1.082031 -0.757812 1.3125 -1.15625 C 1.539062 -1.550781 2.113281 -2.75 3.03125 -4.75 C 3.957031 -6.757812 4.78125 -8.53125 5.5 -10.0625 C 5.5625 -10.195312 5.617188 -10.285156 5.671875 -10.328125 C 5.722656 -10.367188 5.796875 -10.390625 5.890625 -10.390625 C 5.992188 -10.390625 6.0625 -10.367188 6.09375 -10.328125 C 6.125 -10.285156 6.175781 -10.15625 6.25 -9.9375 C 6.332031 -9.71875 6.394531 -9.550781 6.4375 -9.4375 C 6.476562 -9.320312 6.546875 -9.132812 6.640625 -8.875 C 6.734375 -8.613281 6.882812 -8.222656 7.09375 -7.703125 C 7.3125 -7.191406 7.796875 -6.0625 8.546875 -4.3125 C 9.296875 -2.570312 9.726562 -1.582031 9.84375 -1.34375 C 9.957031 -1.113281 10.113281 -0.914062 10.3125 -0.75 C 10.507812 -0.582031 10.679688 -0.488281 10.828125 -0.46875 C 10.984375 -0.457031 11.109375 -0.4375 11.203125 -0.40625 C 11.304688 -0.375 11.359375 -0.300781 11.359375 -0.1875 C 11.359375 -0.0390625 11.226562 0.03125 10.96875 0.03125 L 9.6875 -0.0625 L 8.34375 0 C 8.050781 0 7.863281 -0.0078125 7.78125 -0.03125 C 7.695312 -0.0625 7.65625 -0.113281 7.65625 -0.1875 C 7.65625 -0.257812 7.691406 -0.316406 7.765625 -0.359375 C 7.847656 -0.410156 7.929688 -0.441406 8.015625 -0.453125 C 8.097656 -0.460938 8.175781 -0.503906 8.25 -0.578125 C 8.332031 -0.648438 8.375 -0.769531 8.375 -0.9375 C 8.375 -1.101562 8.253906 -1.507812 8.015625 -2.15625 C 7.773438 -2.8125 7.578125 -3.289062 7.421875 -3.59375 C 7.328125 -3.757812 7.128906 -3.84375 6.828125 -3.84375 L 5.09375 -3.8125 L 4.328125 -3.8125 C 3.898438 -3.8125 3.628906 -3.785156 3.515625 -3.734375 C 3.410156 -3.691406 3.320312 -3.59375 3.25 -3.4375 C 3.175781 -3.289062 3.070312 -3.078125 2.9375 -2.796875 C 2.800781 -2.523438 2.707031 -2.335938 2.65625 -2.234375 C 2.613281 -2.128906 2.5625 -2 2.5 -1.84375 C 2.375 -1.550781 2.3125 -1.304688 2.3125 -1.109375 C 2.3125 -0.921875 2.363281 -0.769531 2.46875 -0.65625 C 2.582031 -0.539062 2.707031 -0.472656 2.84375 -0.453125 C 3.195312 -0.429688 3.375 -0.34375 3.375 -0.1875 C 3.375 -0.125 3.359375 -0.0703125 3.328125 -0.03125 C 3.296875 0 3.226562 0.015625 3.125 0.015625 Z M 5.390625 -8.171875 C 5.304688 -8.171875 5.035156 -7.640625 4.578125 -6.578125 C 4.117188 -5.523438 3.890625 -4.941406 3.890625 -4.828125 C 3.890625 -4.710938 3.929688 -4.640625 4.015625 -4.609375 C 4.097656 -4.585938 4.300781 -4.578125 4.625 -4.578125 L 5.0625 -4.578125 L 6.421875 -4.59375 C 6.796875 -4.59375 6.984375 -4.660156 6.984375 -4.796875 C 6.984375 -4.929688 6.75 -5.523438 6.28125 -6.578125 C 5.8125 -7.640625 5.515625 -8.171875 5.390625 -8.171875 Z M 5.390625 -8.171875 "/></g></g><g style="fill:rgb(0%,0%,0%);fill-opacity:1;"><g transform="translate(177.412208, 357.005151)"><path style="stroke:none;" d="M 2.0625 0.03125 L 0.84375 0.0625 C 0.632812 0.0625 0.53125 -0.015625 0.53125 -0.171875 C 0.53125 -0.253906 0.59375 -0.304688 0.71875 -0.328125 C 0.84375 -0.359375 0.992188 -0.4375 1.171875 -0.5625 C 1.359375 -0.6875 1.488281 -0.890625 1.5625 -1.171875 C 1.632812 -1.453125 1.710938 -2.367188 1.796875 -3.921875 C 1.890625 -5.484375 1.9375 -6.617188 1.9375 -7.328125 C 1.9375 -8.035156 1.820312 -8.59375 1.59375 -9 C 1.363281 -9.40625 0.988281 -9.640625 0.46875 -9.703125 C 0.34375 -9.703125 0.28125 -9.769531 0.28125 -9.90625 C 0.28125 -9.96875 0.3125 -10.023438 0.375 -10.078125 C 0.445312 -10.128906 0.535156 -10.15625 0.640625 -10.15625 L 1.1875 -10.140625 L 1.890625 -10.171875 C 1.972656 -10.171875 2.070312 -10.144531 2.1875 -10.09375 C 2.300781 -10.039062 2.367188 -9.992188 2.390625 -9.953125 C 2.410156 -9.910156 2.460938 -9.835938 2.546875 -9.734375 C 2.640625 -9.628906 2.753906 -9.492188 2.890625 -9.328125 C 3.035156 -9.171875 3.164062 -9.015625 3.28125 -8.859375 C 4.582031 -7.171875 6.320312 -5.128906 8.5 -2.734375 C 8.5625 -2.671875 8.628906 -2.59375 8.703125 -2.5 C 8.785156 -2.414062 8.84375 -2.351562 8.875 -2.3125 C 8.914062 -2.269531 8.957031 -2.226562 9 -2.1875 C 9.0625 -2.125 9.113281 -2.09375 9.15625 -2.09375 C 9.25 -2.09375 9.296875 -2.390625 9.296875 -2.984375 L 9.296875 -4.65625 L 9.265625 -7.609375 L 9.265625 -7.703125 C 9.265625 -8.578125 9.113281 -9.132812 8.8125 -9.375 C 8.695312 -9.46875 8.597656 -9.523438 8.515625 -9.546875 C 8.441406 -9.566406 8.332031 -9.59375 8.1875 -9.625 C 7.800781 -9.695312 7.609375 -9.800781 7.609375 -9.9375 C 7.609375 -10.082031 7.695312 -10.15625 7.875 -10.15625 L 9.234375 -10.140625 C 9.234375 -10.140625 9.664062 -10.148438 10.53125 -10.171875 C 10.6875 -10.171875 10.796875 -10.148438 10.859375 -10.109375 C 10.921875 -10.078125 10.953125 -10.03125 10.953125 -9.96875 C 10.953125 -9.90625 10.925781 -9.851562 10.875 -9.8125 C 10.789062 -9.757812 10.648438 -9.703125 10.453125 -9.640625 C 10.140625 -9.460938 9.984375 -8.921875 9.984375 -8.015625 L 9.984375 -7.46875 L 9.828125 -0.375 L 9.828125 -0.09375 C 9.828125 0.132812 9.757812 0.25 9.625 0.25 C 9.539062 0.25 9.460938 0.210938 9.390625 0.140625 C 6.222656 -3.535156 4.328125 -5.71875 3.703125 -6.40625 C 3.085938 -7.101562 2.75 -7.453125 2.6875 -7.453125 C 2.582031 -7.453125 2.53125 -7.0625 2.53125 -6.28125 C 2.53125 -5.507812 2.507812 -4.597656 2.46875 -3.546875 C 2.4375 -2.503906 2.421875 -1.9375 2.421875 -1.84375 C 2.421875 -1.40625 2.492188 -1.070312 2.640625 -0.84375 C 2.796875 -0.625 2.957031 -0.5 3.125 -0.46875 C 3.300781 -0.445312 3.460938 -0.414062 3.609375 -0.375 C 3.753906 -0.34375 3.828125 -0.273438 3.828125 -0.171875 C 3.828125 -0.078125 3.8125 -0.015625 3.78125 0.015625 C 3.75 0.046875 3.6875 0.0625 3.59375 0.0625 Z M 2.0625 0.03125 "/></g></g><g style="fill:rgb(0%,0%,0%);fill-opacity:1;"><g transform="translate(191.294651, 357.005151)"><path style="stroke:none;" d=""/></g></g><g style="fill:rgb(0%,0%,0%);fill-opacity:1;"><g transform="translate(196.788303, 357.005151)"><path style="stroke:none;" d="M 0.625 -4.65625 C 0.625 -5.6875 0.828125 -6.617188 1.234375 -7.453125 C 1.640625 -8.285156 2.257812 -8.957031 3.09375 -9.46875 C 3.925781 -9.976562 4.914062 -10.234375 6.0625 -10.234375 C 6.644531 -10.234375 7.234375 -10.144531 7.828125 -9.96875 C 8.421875 -9.800781 8.894531 -9.632812 9.25 -9.46875 L 9.78125 -9.1875 C 9.8125 -9.1875 9.859375 -9.210938 9.921875 -9.265625 C 9.992188 -9.316406 10.050781 -9.34375 10.09375 -9.34375 C 10.132812 -9.34375 10.175781 -9.320312 10.21875 -9.28125 C 10.269531 -9.238281 10.296875 -9.128906 10.296875 -8.953125 C 10.304688 -8.773438 10.328125 -8.53125 10.359375 -8.21875 C 10.390625 -7.914062 10.421875 -7.660156 10.453125 -7.453125 C 10.484375 -7.253906 10.5 -7.132812 10.5 -7.09375 C 10.5 -6.925781 10.441406 -6.84375 10.328125 -6.84375 C 10.242188 -6.84375 10.160156 -6.910156 10.078125 -7.046875 C 9.148438 -8.785156 7.8125 -9.65625 6.0625 -9.65625 C 4.875 -9.65625 3.894531 -9.269531 3.125 -8.5 C 2.363281 -7.738281 1.984375 -6.742188 1.984375 -5.515625 C 1.984375 -4.128906 2.335938 -2.953125 3.046875 -1.984375 C 3.398438 -1.484375 3.894531 -1.085938 4.53125 -0.796875 C 5.164062 -0.515625 5.898438 -0.375 6.734375 -0.375 C 8.117188 -0.375 9.28125 -1.09375 10.21875 -2.53125 C 10.25 -2.59375 10.316406 -2.625 10.421875 -2.625 C 10.515625 -2.625 10.5625 -2.5625 10.5625 -2.4375 C 10.5625 -2.320312 10.539062 -2.175781 10.5 -2 C 10.46875 -1.820312 10.425781 -1.625 10.375 -1.40625 C 10.332031 -1.195312 10.304688 -1.066406 10.296875 -1.015625 C 10.273438 -0.910156 10.195312 -0.828125 10.0625 -0.765625 C 9.550781 -0.515625 9.148438 -0.328125 8.859375 -0.203125 C 8.097656 0.117188 7.285156 0.28125 6.421875 0.28125 C 5.554688 0.28125 4.785156 0.179688 4.109375 -0.015625 C 3.441406 -0.210938 2.894531 -0.472656 2.46875 -0.796875 C 2.050781 -1.128906 1.695312 -1.515625 1.40625 -1.953125 C 0.882812 -2.722656 0.625 -3.625 0.625 -4.65625 Z M 0.625 -4.65625 "/></g></g><g style="fill:rgb(0%,0%,0%);fill-opacity:1;"><g transform="translate(210.799809, 357.005151)"><path style="stroke:none;" d="M 1.640625 -6.1875 L 1.65625 -8.25 C 1.65625 -8.769531 1.59375 -9.128906 1.46875 -9.328125 C 1.351562 -9.523438 1.066406 -9.65625 0.609375 -9.71875 C 0.390625 -9.75 0.28125 -9.84375 0.28125 -10 C 0.28125 -10.070312 0.304688 -10.117188 0.359375 -10.140625 C 0.421875 -10.171875 0.503906 -10.1875 0.609375 -10.1875 L 2.234375 -10.125 L 3.578125 -10.15625 C 3.785156 -10.15625 3.890625 -10.085938 3.890625 -9.953125 C 3.890625 -9.867188 3.851562 -9.816406 3.78125 -9.796875 C 3.71875 -9.773438 3.632812 -9.757812 3.53125 -9.75 C 3.4375 -9.738281 3.335938 -9.707031 3.234375 -9.65625 C 3.003906 -9.519531 2.890625 -9.070312 2.890625 -8.3125 L 2.890625 -7.921875 L 2.875 -4.8125 C 2.875 -3.875 2.898438 -3.257812 2.953125 -2.96875 C 3.015625 -2.675781 3.082031 -2.410156 3.15625 -2.171875 C 3.226562 -1.929688 3.316406 -1.738281 3.421875 -1.59375 C 3.535156 -1.445312 3.675781 -1.285156 3.84375 -1.109375 C 4.019531 -0.941406 4.21875 -0.8125 4.4375 -0.71875 C 4.945312 -0.507812 5.535156 -0.40625 6.203125 -0.40625 C 7.234375 -0.40625 7.945312 -0.519531 8.34375 -0.75 C 8.519531 -0.84375 8.71875 -0.988281 8.9375 -1.1875 C 9.164062 -1.394531 9.34375 -1.648438 9.46875 -1.953125 C 9.757812 -2.660156 9.90625 -3.554688 9.90625 -4.640625 L 9.890625 -7.6875 C 9.890625 -8.019531 9.882812 -8.28125 9.875 -8.46875 C 9.863281 -8.664062 9.816406 -8.878906 9.734375 -9.109375 C 9.648438 -9.335938 9.546875 -9.492188 9.421875 -9.578125 C 9.296875 -9.660156 9.15625 -9.710938 9 -9.734375 C 8.851562 -9.765625 8.726562 -9.785156 8.625 -9.796875 C 8.53125 -9.816406 8.484375 -9.859375 8.484375 -9.921875 C 8.484375 -10.078125 8.582031 -10.15625 8.78125 -10.15625 L 9.890625 -10.125 L 11.109375 -10.171875 C 11.304688 -10.171875 11.40625 -10.109375 11.40625 -9.984375 C 11.40625 -9.910156 11.300781 -9.8125 11.09375 -9.6875 C 10.882812 -9.570312 10.757812 -9.460938 10.71875 -9.359375 C 10.613281 -9.160156 10.5625 -8.847656 10.5625 -8.421875 L 10.578125 -7.453125 C 10.578125 -5.617188 10.5 -4.210938 10.34375 -3.234375 C 10.1875 -2.265625 9.953125 -1.5625 9.640625 -1.125 C 8.992188 -0.195312 7.859375 0.265625 6.234375 0.265625 C 4.609375 0.265625 3.460938 -0.0351562 2.796875 -0.640625 C 2.273438 -1.128906 1.953125 -1.710938 1.828125 -2.390625 C 1.703125 -3.078125 1.640625 -4.257812 1.640625 -5.9375 Z M 1.640625 -6.1875 "/></g></g><g style="fill:rgb(0%,0%,0%);fill-opacity:1;"><g transform="translate(224.926035, 357.005151)"><path style="stroke:none;" d="M 1.703125 -5.765625 L 1.71875 -7.3125 L 1.71875 -7.96875 C 1.71875 -8.394531 1.703125 -8.734375 1.671875 -8.984375 C 1.640625 -9.234375 1.507812 -9.421875 1.28125 -9.546875 C 1.0625 -9.671875 0.835938 -9.738281 0.609375 -9.75 C 0.390625 -9.757812 0.28125 -9.832031 0.28125 -9.96875 C 0.28125 -10.113281 0.414062 -10.1875 0.6875 -10.1875 L 2.3125 -10.125 L 3.578125 -10.15625 C 3.828125 -10.15625 3.953125 -10.085938 3.953125 -9.953125 C 3.953125 -9.878906 3.734375 -9.75 3.296875 -9.5625 C 2.992188 -9.4375 2.84375 -8.890625 2.84375 -7.921875 L 2.796875 -2.609375 C 2.796875 -1.804688 2.90625 -1.242188 3.125 -0.921875 C 3.351562 -0.597656 3.59375 -0.4375 3.84375 -0.4375 L 4.125 -0.421875 C 4.195312 -0.421875 4.265625 -0.398438 4.328125 -0.359375 C 4.398438 -0.328125 4.4375 -0.273438 4.4375 -0.203125 C 4.4375 -0.0664062 4.316406 0 4.078125 0 L 2.71875 -0.0625 L 1.140625 0.015625 C 0.703125 0.015625 0.484375 -0.0546875 0.484375 -0.203125 C 0.484375 -0.335938 0.632812 -0.421875 0.9375 -0.453125 C 1.050781 -0.460938 1.171875 -0.519531 1.296875 -0.625 C 1.421875 -0.738281 1.5 -0.863281 1.53125 -1 C 1.5625 -1.144531 1.597656 -1.726562 1.640625 -2.75 C 1.679688 -3.769531 1.703125 -4.503906 1.703125 -4.953125 Z M 1.703125 -5.765625 "/></g></g><g style="fill:rgb(0%,0%,0%);fill-opacity:1;"><g transform="translate(232.068769, 357.005151)"><path style="stroke:none;" d="M 6.53125 -9.890625 L 6.859375 -10 C 6.984375 -10 7.054688 -9.960938 7.078125 -9.890625 C 7.273438 -8.722656 7.375 -8.035156 7.375 -7.828125 C 7.375 -7.628906 7.304688 -7.53125 7.171875 -7.53125 C 7.085938 -7.53125 7.003906 -7.628906 6.921875 -7.828125 C 6.835938 -8.035156 6.738281 -8.222656 6.625 -8.390625 C 6.519531 -8.566406 6.441406 -8.679688 6.390625 -8.734375 C 6.347656 -8.785156 6.226562 -8.898438 6.03125 -9.078125 C 5.507812 -9.535156 4.914062 -9.765625 4.25 -9.765625 C 3.582031 -9.765625 3.046875 -9.617188 2.640625 -9.328125 C 2.242188 -9.046875 2.046875 -8.675781 2.046875 -8.21875 C 2.046875 -7.757812 2.160156 -7.390625 2.390625 -7.109375 C 2.628906 -6.835938 2.945312 -6.625 3.34375 -6.46875 C 3.738281 -6.3125 4.148438 -6.164062 4.578125 -6.03125 C 5.734375 -5.675781 6.585938 -5.207031 7.140625 -4.625 C 7.523438 -4.207031 7.71875 -3.691406 7.71875 -3.078125 C 7.71875 -2.078125 7.394531 -1.28125 6.75 -0.6875 C 6.113281 -0.101562 5.320312 0.1875 4.375 0.1875 C 3.71875 0.1875 3.1875 0.148438 2.78125 0.078125 C 2.382812 0.00390625 1.972656 -0.140625 1.546875 -0.359375 C 1.421875 -0.429688 1.269531 -0.800781 1.09375 -1.46875 C 0.925781 -2.144531 0.84375 -2.566406 0.84375 -2.734375 C 0.84375 -2.898438 0.90625 -2.984375 1.03125 -2.984375 C 1.164062 -2.984375 1.25 -2.9375 1.28125 -2.84375 C 1.632812 -1.988281 2.050781 -1.382812 2.53125 -1.03125 C 3.039062 -0.632812 3.660156 -0.4375 4.390625 -0.4375 C 5.128906 -0.4375 5.710938 -0.625 6.140625 -1 C 6.578125 -1.382812 6.796875 -1.882812 6.796875 -2.5 C 6.796875 -2.945312 6.644531 -3.320312 6.34375 -3.625 C 6.050781 -3.925781 5.710938 -4.144531 5.328125 -4.28125 C 3.910156 -4.75 2.945312 -5.132812 2.4375 -5.4375 C 1.570312 -5.945312 1.140625 -6.640625 1.140625 -7.515625 C 1.140625 -8.390625 1.445312 -9.082031 2.0625 -9.59375 C 2.675781 -10.101562 3.472656 -10.359375 4.453125 -10.359375 C 4.816406 -10.359375 5.25 -10.28125 5.75 -10.125 C 6.257812 -9.96875 6.519531 -9.890625 6.53125 -9.890625 Z M 6.53125 -9.890625 "/></g></g><g style="fill:rgb(0%,0%,0%);fill-opacity:1;"><g transform="translate(243.054577, 357.005151)"><path style="stroke:none;" d="M 1.703125 -5.765625 L 1.71875 -7.3125 L 1.71875 -7.96875 C 1.71875 -8.394531 1.703125 -8.734375 1.671875 -8.984375 C 1.640625 -9.234375 1.507812 -9.421875 1.28125 -9.546875 C 1.0625 -9.671875 0.835938 -9.738281 0.609375 -9.75 C 0.390625 -9.757812 0.28125 -9.832031 0.28125 -9.96875 C 0.28125 -10.113281 0.414062 -10.1875 0.6875 -10.1875 L 2.3125 -10.125 L 3.578125 -10.15625 C 3.828125 -10.15625 3.953125 -10.085938 3.953125 -9.953125 C 3.953125 -9.878906 3.734375 -9.75 3.296875 -9.5625 C 2.992188 -9.4375 2.84375 -8.890625 2.84375 -7.921875 L 2.796875 -2.609375 C 2.796875 -1.804688 2.90625 -1.242188 3.125 -0.921875 C 3.351562 -0.597656 3.59375 -0.4375 3.84375 -0.4375 L 4.125 -0.421875 C 4.195312 -0.421875 4.265625 -0.398438 4.328125 -0.359375 C 4.398438 -0.328125 4.4375 -0.273438 4.4375 -0.203125 C 4.4375 -0.0664062 4.316406 0 4.078125 0 L 2.71875 -0.0625 L 1.140625 0.015625 C 0.703125 0.015625 0.484375 -0.0546875 0.484375 -0.203125 C 0.484375 -0.335938 0.632812 -0.421875 0.9375 -0.453125 C 1.050781 -0.460938 1.171875 -0.519531 1.296875 -0.625 C 1.421875 -0.738281 1.5 -0.863281 1.53125 -1 C 1.5625 -1.144531 1.597656 -1.726562 1.640625 -2.75 C 1.679688 -3.769531 1.703125 -4.503906 1.703125 -4.953125 Z M 1.703125 -5.765625 "/></g></g><g style="fill:rgb(0%,0%,0%);fill-opacity:1;"><g transform="translate(250.197311, 357.005151)"><path style="stroke:none;" d="M 2.0625 0.03125 L 0.84375 0.0625 C 0.632812 0.0625 0.53125 -0.015625 0.53125 -0.171875 C 0.53125 -0.253906 0.59375 -0.304688 0.71875 -0.328125 C 0.84375 -0.359375 0.992188 -0.4375 1.171875 -0.5625 C 1.359375 -0.6875 1.488281 -0.890625 1.5625 -1.171875 C 1.632812 -1.453125 1.710938 -2.367188 1.796875 -3.921875 C 1.890625 -5.484375 1.9375 -6.617188 1.9375 -7.328125 C 1.9375 -8.035156 1.820312 -8.59375 1.59375 -9 C 1.363281 -9.40625 0.988281 -9.640625 0.46875 -9.703125 C 0.34375 -9.703125 0.28125 -9.769531 0.28125 -9.90625 C 0.28125 -9.96875 0.3125 -10.023438 0.375 -10.078125 C 0.445312 -10.128906 0.535156 -10.15625 0.640625 -10.15625 L 1.1875 -10.140625 L 1.890625 -10.171875 C 1.972656 -10.171875 2.070312 -10.144531 2.1875 -10.09375 C 2.300781 -10.039062 2.367188 -9.992188 2.390625 -9.953125 C 2.410156 -9.910156 2.460938 -9.835938 2.546875 -9.734375 C 2.640625 -9.628906 2.753906 -9.492188 2.890625 -9.328125 C 3.035156 -9.171875 3.164062 -9.015625 3.28125 -8.859375 C 4.582031 -7.171875 6.320312 -5.128906 8.5 -2.734375 C 8.5625 -2.671875 8.628906 -2.59375 8.703125 -2.5 C 8.785156 -2.414062 8.84375 -2.351562 8.875 -2.3125 C 8.914062 -2.269531 8.957031 -2.226562 9 -2.1875 C 9.0625 -2.125 9.113281 -2.09375 9.15625 -2.09375 C 9.25 -2.09375 9.296875 -2.390625 9.296875 -2.984375 L 9.296875 -4.65625 L 9.265625 -7.609375 L 9.265625 -7.703125 C 9.265625 -8.578125 9.113281 -9.132812 8.8125 -9.375 C 8.695312 -9.46875 8.597656 -9.523438 8.515625 -9.546875 C 8.441406 -9.566406 8.332031 -9.59375 8.1875 -9.625 C 7.800781 -9.695312 7.609375 -9.800781 7.609375 -9.9375 C 7.609375 -10.082031 7.695312 -10.15625 7.875 -10.15625 L 9.234375 -10.140625 C 9.234375 -10.140625 9.664062 -10.148438 10.53125 -10.171875 C 10.6875 -10.171875 10.796875 -10.148438 10.859375 -10.109375 C 10.921875 -10.078125 10.953125 -10.03125 10.953125 -9.96875 C 10.953125 -9.90625 10.925781 -9.851562 10.875 -9.8125 C 10.789062 -9.757812 10.648438 -9.703125 10.453125 -9.640625 C 10.140625 -9.460938 9.984375 -8.921875 9.984375 -8.015625 L 9.984375 -7.46875 L 9.828125 -0.375 L 9.828125 -0.09375 C 9.828125 0.132812 9.757812 0.25 9.625 0.25 C 9.539062 0.25 9.460938 0.210938 9.390625 0.140625 C 6.222656 -3.535156 4.328125 -5.71875 3.703125 -6.40625 C 3.085938 -7.101562 2.75 -7.453125 2.6875 -7.453125 C 2.582031 -7.453125 2.53125 -7.0625 2.53125 -6.28125 C 2.53125 -5.507812 2.507812 -4.597656 2.46875 -3.546875 C 2.4375 -2.503906 2.421875 -1.9375 2.421875 -1.84375 C 2.421875 -1.40625 2.492188 -1.070312 2.640625 -0.84375 C 2.796875 -0.625 2.957031 -0.5 3.125 -0.46875 C 3.300781 -0.445312 3.460938 -0.414062 3.609375 -0.375 C 3.753906 -0.34375 3.828125 -0.273438 3.828125 -0.171875 C 3.828125 -0.078125 3.8125 -0.015625 3.78125 0.015625 C 3.75 0.046875 3.6875 0.0625 3.59375 0.0625 Z M 2.0625 0.03125 "/></g></g><g style="fill:rgb(0%,0%,0%);fill-opacity:1;"><g transform="translate(264.079761, 357.005151)"><path style="stroke:none;" d="M 1.65625 -5.09375 L 1.703125 -7.578125 C 1.703125 -7.828125 1.691406 -8.257812 1.671875 -8.875 C 1.660156 -9.15625 1.539062 -9.367188 1.3125 -9.515625 C 1.082031 -9.671875 0.816406 -9.753906 0.515625 -9.765625 C 0.359375 -9.765625 0.28125 -9.851562 0.28125 -10.03125 C 0.28125 -10.164062 0.414062 -10.234375 0.6875 -10.234375 L 1.078125 -10.203125 L 4.578125 -10.125 L 7.4375 -10.1875 C 7.625 -10.1875 7.71875 -10.078125 7.71875 -9.859375 C 7.71875 -9.796875 7.6875 -9.601562 7.625 -9.28125 C 7.570312 -8.96875 7.546875 -8.71875 7.546875 -8.53125 C 7.546875 -8.226562 7.46875 -8.078125 7.3125 -8.078125 C 7.164062 -8.078125 7.09375 -8.191406 7.09375 -8.421875 C 7.09375 -8.648438 7.007812 -8.867188 6.84375 -9.078125 C 6.6875 -9.285156 6.488281 -9.394531 6.25 -9.40625 C 5.394531 -9.476562 4.738281 -9.515625 4.28125 -9.515625 L 3.90625 -9.515625 C 3.40625 -9.515625 3.117188 -9.476562 3.046875 -9.40625 C 2.898438 -9.28125 2.828125 -8.222656 2.828125 -6.234375 C 2.828125 -5.753906 2.914062 -5.515625 3.09375 -5.515625 L 4.5 -5.515625 C 5.070312 -5.515625 5.457031 -5.53125 5.65625 -5.5625 C 6.144531 -5.65625 6.425781 -5.90625 6.5 -6.3125 C 6.53125 -6.476562 6.59375 -6.5625 6.6875 -6.5625 C 6.78125 -6.5625 6.835938 -6.546875 6.859375 -6.515625 C 6.878906 -6.484375 6.890625 -6.421875 6.890625 -6.328125 L 6.765625 -4.8125 L 6.8125 -3.9375 C 6.8125 -3.695312 6.78125 -3.578125 6.71875 -3.578125 C 6.570312 -3.578125 6.460938 -3.695312 6.390625 -3.9375 C 6.265625 -4.332031 6.144531 -4.566406 6.03125 -4.640625 C 5.832031 -4.765625 5.484375 -4.828125 4.984375 -4.828125 L 3.953125 -4.828125 L 3.5 -4.84375 L 3.40625 -4.84375 C 3.007812 -4.84375 2.8125 -4.753906 2.8125 -4.578125 L 2.78125 -2.515625 L 2.78125 -1.9375 C 2.78125 -1.25 2.894531 -0.867188 3.125 -0.796875 C 3.363281 -0.722656 3.570312 -0.6875 3.75 -0.6875 C 5.175781 -0.6875 6.210938 -0.800781 6.859375 -1.03125 C 7.421875 -1.238281 7.765625 -1.457031 7.890625 -1.6875 C 8.003906 -1.925781 8.109375 -2.046875 8.203125 -2.046875 C 8.316406 -2.046875 8.375 -1.96875 8.375 -1.8125 C 8.375 -1.394531 8.164062 -0.972656 7.75 -0.546875 C 7.34375 -0.128906 6.988281 0.078125 6.6875 0.078125 C 6 0.078125 5.222656 0.0507812 4.359375 0 C 3.492188 -0.0507812 2.953125 -0.078125 2.734375 -0.078125 L 0.78125 0.0625 C 0.582031 0.0625 0.484375 0.0078125 0.484375 -0.09375 L 0.484375 -0.265625 C 0.484375 -0.316406 0.53125 -0.351562 0.625 -0.375 C 0.726562 -0.382812 0.890625 -0.441406 1.109375 -0.546875 C 1.335938 -0.648438 1.484375 -0.867188 1.546875 -1.203125 C 1.617188 -1.535156 1.65625 -2.238281 1.65625 -3.3125 Z M 1.65625 -5.09375 "/></g></g></g></svg>