<?xml version="1.0" encoding="UTF-8"?><svg xmlns="http://www.w3.org/2000/svg" xmlns:xlink="http://www.w3.org/1999/xlink" contentScriptType="text/ecmascript" width="375pt" zoomAndPan="magnify" contentStyleType="text/css" viewBox="0 0 375 374.999991" height="374.999991pt" preserveAspectRatio="xMidYMid meet" version="1.2"><defs><clipPath xml:id="clip1" id="clip1"><path d="M 6.460938 6.460938 L 368.710938 6.460938 L 368.710938 368.710938 L 6.460938 368.710938 Z M 6.460938 6.460938 "/></clipPath></defs><g xml:id="surface1" id="surface1"><rect x="0" width="375" y="0" height="374.999991" style="fill:rgb(100%,100%,100%);fill-opacity:1;stroke:none;"/><rect x="0" width="375" y="0" height="374.999991" style="fill:rgb(100%,100%,100%);fill-opacity:1;stroke:none;"/><rect x="0" width="375" y="0" height="374.999991" style="fill:rgb(0%,0%,0%);fill-opacity:1;stroke:none;"/><g clip-rule="nonzero" clip-path="url(#clip1)"><path style=" stroke:none;fill-rule:nonzero;fill:rgb(100%,100%,100%);fill-opacity:1;" d="M 368.699219 6.460938 L 368.699219 187.582031 C 318.6875 187.582031 278.140625 147.035156 278.140625 97.023438 C 278.140625 147.035156 237.59375 187.582031 187.578125 187.582031 L 187.578125 6.460938 C 237.59375 6.460938 278.136719 47.003906 278.140625 97.019531 C 278.140625 47.003906 318.683594 6.460938 368.699219 6.460938 Z M 187.578125 97.019531 C 187.578125 147.035156 147.035156 187.578125 97.019531 187.578125 C 47.003906 187.578125 6.460938 147.035156 6.460938 97.019531 C 6.460938 47.003906 47.003906 6.460938 97.019531 6.460938 C 147.035156 6.460938 187.578125 47.003906 187.578125 97.019531 Z M 170.65625 65.917969 C 166.628906 56.402344 160.867188 47.855469 153.523438 40.515625 C 146.183594 33.171875 137.636719 27.410156 128.121094 23.386719 C 118.277344 19.222656 107.8125 17.109375 97.019531 17.109375 C 86.226562 17.109375 75.761719 19.222656 65.917969 23.386719 C 56.402344 27.410156 47.855469 33.171875 40.515625 40.515625 C 33.171875 47.855469 27.410156 56.402344 23.386719 65.917969 C 19.222656 75.761719 17.109375 86.226562 17.109375 97.019531 C 17.109375 107.8125 19.222656 118.277344 23.386719 128.121094 C 27.410156 137.636719 33.171875 146.183594 40.515625 153.523438 C 47.855469 160.867188 56.402344 166.628906 65.917969 170.65625 C 75.761719 174.816406 86.226562 176.929688 97.019531 176.929688 C 107.8125 176.929688 118.277344 174.816406 128.121094 170.65625 C 137.636719 166.628906 146.183594 160.867188 153.527344 153.523438 C 160.867188 146.183594 166.632812 137.636719 170.65625 128.121094 C 174.820312 118.277344 176.929688 107.8125 176.929688 97.019531 C 176.929688 86.226562 174.820312 75.761719 170.65625 65.917969 Z M 164.433594 97.019531 C 164.433594 134.25 134.25 164.433594 97.019531 164.433594 C 59.789062 164.433594 29.605469 134.25 29.605469 97.019531 C 29.605469 59.789062 59.789062 29.605469 97.019531 29.605469 C 134.25 29.605469 164.433594 59.789062 164.433594 97.019531 Z M 149.324219 74.925781 C 146.464844 68.167969 142.367188 62.09375 137.15625 56.882812 C 131.945312 51.671875 125.871094 47.574219 119.113281 44.714844 C 112.132812 41.761719 104.695312 40.257812 97.019531 40.257812 C 89.34375 40.257812 81.90625 41.761719 74.925781 44.714844 C 68.167969 47.574219 62.09375 51.671875 56.882812 56.882812 C 51.671875 62.09375 47.574219 68.167969 44.714844 74.925781 C 41.761719 81.90625 40.253906 89.34375 40.253906 97.019531 C 40.253906 104.695312 41.761719 112.132812 44.714844 119.113281 C 47.574219 125.871094 51.671875 131.945312 56.882812 137.15625 C 62.09375 142.367188 68.167969 146.464844 74.925781 149.324219 C 81.90625 152.277344 89.34375 153.78125 97.019531 153.78125 C 104.695312 153.78125 112.132812 152.277344 119.113281 149.324219 C 125.871094 146.464844 131.945312 142.367188 137.15625 137.15625 C 142.367188 131.945312 146.464844 125.871094 149.324219 119.113281 C 152.277344 112.132812 153.785156 104.695312 153.785156 97.019531 C 153.785156 89.34375 152.277344 81.90625 149.324219 74.925781 Z M 141.289062 97.019531 C 141.289062 121.46875 121.46875 141.289062 97.019531 141.289062 C 72.570312 141.289062 52.75 121.46875 52.75 97.019531 C 52.75 72.570312 72.570312 52.75 97.019531 52.75 C 121.46875 52.753906 141.289062 72.570312 141.289062 97.019531 Z M 130.636719 97.019531 C 130.636719 92.457031 129.738281 88.050781 127.996094 83.933594 C 126.300781 79.929688 123.867188 76.328125 120.789062 73.25 C 117.710938 70.171875 114.109375 67.738281 110.105469 66.042969 C 105.984375 64.300781 101.582031 63.402344 97.019531 63.402344 C 92.457031 63.402344 88.050781 64.300781 83.933594 66.042969 C 79.929688 67.738281 76.328125 70.171875 73.25 73.25 C 70.171875 76.328125 67.738281 79.929688 66.042969 83.933594 C 64.300781 88.054688 63.402344 92.457031 63.402344 97.019531 C 63.402344 101.582031 64.300781 105.988281 66.042969 110.105469 C 67.738281 114.109375 70.171875 117.710938 73.25 120.789062 C 76.328125 123.867188 79.929688 126.300781 83.933594 127.996094 C 88.054688 129.738281 92.457031 130.636719 97.019531 130.636719 C 101.582031 130.636719 105.984375 129.738281 110.105469 127.996094 C 114.109375 126.300781 117.710938 123.867188 120.789062 120.789062 C 123.867188 117.710938 126.300781 114.109375 127.996094 110.105469 C 129.738281 105.988281 130.636719 101.582031 130.636719 97.019531 Z M 118.140625 97.019531 C 118.140625 108.683594 108.683594 118.140625 97.019531 118.140625 C 85.355469 118.140625 75.898438 108.683594 75.898438 97.019531 C 75.898438 85.355469 85.355469 75.898438 97.019531 75.898438 C 108.683594 75.898438 118.140625 85.355469 118.140625 97.019531 Z M 107.492188 97.019531 C 107.492188 91.246094 102.792969 86.546875 97.019531 86.546875 C 91.246094 86.546875 86.546875 91.246094 86.546875 97.019531 C 86.546875 102.792969 91.246094 107.492188 97.019531 107.492188 C 102.796875 107.492188 107.492188 102.796875 107.492188 97.019531 Z M 97.019531 278.136719 C 97.019531 228.125 56.472656 187.582031 6.460938 187.582031 L 6.460938 368.699219 C 56.472656 368.699219 97.019531 328.15625 97.019531 278.144531 C 97.019531 328.15625 137.566406 368.699219 187.582031 368.699219 L 187.582031 187.582031 C 137.566406 187.582031 97.019531 228.125 97.019531 278.136719 Z M 368.699219 278.140625 C 368.699219 328.15625 328.15625 368.699219 278.140625 368.699219 C 228.125 368.699219 187.582031 328.15625 187.582031 278.140625 C 187.582031 228.125 228.125 187.582031 278.140625 187.582031 C 328.15625 187.582031 368.699219 228.125 368.699219 278.140625 Z M 351.777344 247.039062 C 347.75 237.523438 341.988281 228.976562 334.644531 221.636719 C 327.304688 214.292969 318.757812 208.53125 309.242188 204.503906 C 299.398438 200.339844 288.933594 198.230469 278.140625 198.230469 C 267.347656 198.230469 256.882812 200.339844 247.039062 204.503906 C 237.523438 208.527344 228.976562 214.292969 221.636719 221.636719 C 214.292969 228.976562 208.527344 237.523438 204.503906 247.039062 C 200.339844 256.882812 198.230469 267.347656 198.230469 278.140625 C 198.230469 288.933594 200.339844 299.394531 204.503906 309.242188 C 208.527344 318.753906 214.292969 327.300781 221.636719 334.644531 C 228.976562 341.988281 237.523438 347.75 247.039062 351.773438 C 256.882812 355.9375 267.347656 358.050781 278.140625 358.050781 C 288.933594 358.050781 299.394531 355.9375 309.242188 351.773438 C 318.757812 347.75 327.304688 341.988281 334.644531 334.644531 C 341.988281 327.300781 347.75 318.753906 351.777344 309.242188 C 355.941406 299.394531 358.050781 288.933594 358.050781 278.140625 C 358.050781 267.347656 355.941406 256.882812 351.777344 247.039062 Z M 345.554688 278.140625 C 345.554688 315.371094 315.371094 345.554688 278.140625 345.554688 C 240.910156 345.554688 210.726562 315.371094 210.726562 278.140625 C 210.726562 240.910156 240.910156 210.726562 278.140625 210.726562 C 315.371094 210.726562 345.554688 240.910156 345.554688 278.140625 Z M 330.445312 256.046875 C 327.585938 249.289062 323.488281 243.214844 318.277344 238.003906 C 313.066406 232.792969 306.992188 228.695312 300.234375 225.835938 C 293.253906 222.882812 285.816406 221.375 278.140625 221.375 C 270.464844 221.375 263.027344 222.882812 256.046875 225.835938 C 249.289062 228.695312 243.214844 232.792969 238.003906 238.003906 C 232.792969 243.214844 228.695312 249.289062 225.835938 256.046875 C 222.878906 263.027344 221.375 270.464844 221.375 278.140625 C 221.375 285.816406 222.882812 293.25 225.835938 300.234375 C 228.695312 306.992188 232.792969 313.066406 238.003906 318.277344 C 243.214844 323.488281 249.289062 327.585938 256.046875 330.445312 C 263.027344 333.398438 270.464844 334.902344 278.140625 334.902344 C 285.816406 334.902344 293.25 333.398438 300.234375 330.445312 C 306.992188 327.585938 313.066406 323.488281 318.277344 318.277344 C 323.488281 313.066406 327.585938 306.992188 330.445312 300.234375 C 333.398438 293.25 334.90625 285.816406 334.90625 278.140625 C 334.90625 270.464844 333.398438 263.027344 330.445312 256.046875 Z M 322.410156 278.140625 C 322.410156 302.589844 302.589844 322.40625 278.140625 322.40625 C 253.691406 322.40625 233.871094 302.589844 233.871094 278.140625 C 233.871094 253.691406 253.691406 233.871094 278.140625 233.871094 C 302.589844 233.871094 322.410156 253.691406 322.410156 278.140625 Z M 311.761719 278.140625 C 311.761719 273.578125 310.859375 269.171875 309.117188 265.054688 C 307.421875 261.050781 304.988281 257.449219 301.910156 254.371094 C 298.832031 251.292969 295.230469 248.859375 291.226562 247.164062 C 287.109375 245.421875 282.703125 244.519531 278.140625 244.519531 C 273.582031 244.519531 269.175781 245.421875 265.058594 247.164062 C 261.050781 248.859375 257.449219 251.292969 254.371094 254.371094 C 251.292969 257.449219 248.859375 261.050781 247.164062 265.054688 C 245.421875 269.171875 244.523438 273.578125 244.523438 278.140625 C 244.523438 282.699219 245.421875 287.109375 247.164062 291.222656 C 248.859375 295.230469 251.292969 298.832031 254.371094 301.910156 C 257.449219 304.988281 261.050781 307.421875 265.058594 309.117188 C 269.175781 310.859375 273.582031 311.757812 278.140625 311.757812 C 282.703125 311.757812 287.109375 310.859375 291.226562 309.117188 C 295.230469 307.421875 298.832031 304.988281 301.910156 301.910156 C 304.988281 298.832031 307.421875 295.230469 309.117188 291.222656 C 310.859375 287.109375 311.761719 282.703125 311.761719 278.140625 Z M 299.261719 278.140625 C 299.261719 289.804688 289.804688 299.261719 278.140625 299.261719 C 266.476562 299.261719 257.019531 289.804688 257.019531 278.140625 C 257.019531 266.472656 266.476562 257.019531 278.140625 257.019531 C 289.804688 257.019531 299.261719 266.476562 299.261719 278.140625 Z M 288.613281 278.140625 C 288.613281 272.367188 283.914062 267.667969 278.140625 267.667969 C 272.363281 267.667969 267.667969 272.367188 267.667969 278.140625 C 267.667969 283.914062 272.367188 288.613281 278.140625 288.613281 C 283.914062 288.613281 288.613281 283.914062 288.613281 278.140625 Z M 288.613281 278.140625 "/></g></g></svg>